<svg width="291" height="162" viewBox="0 0 291 162" fill="none" xmlns="http://www.w3.org/2000/svg">
<path fill-rule="evenodd" clip-rule="evenodd" d="M0 161.102H32.2671C32.2671 143.413 36.9892 126.902 45.2527 112.358L17.3141 96.2401C6.6895 115.502 0 137.516 0 161.102ZM219.967 70.2955C204.227 54.5716 184.552 42.7785 162.123 36.882L153.859 67.9371C170.387 72.2611 185.339 81.3026 197.145 93.0957L219.967 70.2955ZM253.415 128.082L222.328 136.337C222.722 137.123 222.722 137.909 222.722 138.696C220.361 129.654 217.213 120.612 212.491 112.751L184.552 128.868C190.062 138.302 193.209 149.309 193.209 161.102H225.477H257.743C257.743 149.702 256.17 138.696 253.415 128.082Z" fill="#6410D6"/>
<path fill-rule="evenodd" clip-rule="evenodd" d="M242.794 47.4964L219.971 70.2961L197.148 93.0966C203.05 98.9925 208.166 105.675 212.495 113.145L240.433 97.0269L268.372 80.9099C261.289 68.3307 252.632 57.3239 242.794 47.4964ZM129.071 0.324249C114.906 0.324249 100.74 2.28985 87.7543 5.82778L96.0174 36.8826C106.642 34.1308 117.66 32.5585 129.071 32.5585C152.682 32.5585 174.718 38.8483 193.606 49.8551L209.74 21.9448C185.736 8.18622 158.191 0.324249 129.071 0.324249ZM284.505 119.827L253.418 128.082C256.173 138.696 257.747 149.702 257.747 161.102H290.014C290.014 146.951 288.047 132.8 284.505 119.827ZM32.2705 161.102H64.5377C64.5377 125.723 93.2633 96.6339 129.071 96.6339C134.974 96.6339 140.484 97.4198 145.599 98.9925L153.863 67.9376C145.992 65.9722 137.335 64.7929 128.678 64.7929C75.5557 64.7929 32.2705 107.641 32.2705 161.102Z" fill="#ABDA02"/>
</svg>
