
<svg width="680" height="680" viewBox="0 0 680 680" fill="none" xmlns="http://www.w3.org/2000/svg">
<mask id="mask0" style="mask-type:alpha" maskUnits="userSpaceOnUse" x="0" y="0" width="680" height="680">
<path d="M0 0H679.332V679.423H0V0Z" fill="white"/>
</mask>
<g mask="url(#mask0)">
<path fill-rule="evenodd" clip-rule="evenodd" d="M339.668 -0.00305176H67.9456C46.8389 -0.00305176 27.979 9.61937 15.5134 24.7164C14.1389 26.4018 12.8242 28.147 11.6051 29.952C4.27872 40.7936 0 53.8705 0 67.9396C0 103.991 28.1105 133.408 63.5713 135.667L64.2884 136.42H338.378C450.162 136.42 541.629 227.899 541.629 339.71C541.629 451.521 450.162 543.012 338.378 543.012H164.193C148.751 542.869 136.262 530.449 135.987 515.041H135.951H135.891V543.012H135.867V407.653H343.099C380.46 407.653 411.044 377.064 411.044 339.698C411.044 302.332 380.46 271.756 343.099 271.756H67.9456C67.862 271.756 67.7903 271.767 67.7066 271.767H66.0214C29.712 271.767 0 301.483 0 337.81V543.012V611.481V613.393C0 649.707 29.712 679.423 66.0214 679.423H67.9456H69.846H339.668C526.486 679.423 679.337 526.552 679.337 339.71C679.337 152.868 526.486 -0.00305176 339.668 -0.00305176Z" fill="#2196F3"/>
</g>
</svg>
