<svg width="95" height="135" viewBox="0 0 95 135" fill="none" xmlns="http://www.w3.org/2000/svg">
<path d="M82.9199 5L6.10992 22.38C5.82716 22.4466 5.57116 22.5972 5.37552 22.8119C5.17989 23.0266 5.05379 23.2955 5.01376 23.5833C4.97374 23.871 5.02168 24.1641 5.15128 24.4241C5.28087 24.6841 5.48607 24.8988 5.73992 25.04L88.9099 66.79C89.3168 67.0121 89.652 67.3455 89.8763 67.7512C90.1005 68.1569 90.2046 68.6181 90.1763 69.0808C90.1479 69.5435 89.9884 69.9885 89.7163 70.3638C89.4442 70.7392 89.0709 71.0292 88.6399 71.2L5.77992 110.2C5.53666 110.296 5.33019 110.466 5.19047 110.687C5.05075 110.908 4.98503 111.168 5.00287 111.429C5.0207 111.689 5.12114 111.938 5.28964 112.138C5.45813 112.337 5.6859 112.478 5.93992 112.54L82.1199 129.54C82.2525 129.605 82.4055 129.615 82.5452 129.567C82.6849 129.519 82.7999 129.418 82.8649 129.285C82.9299 129.152 82.9395 128.999 82.8917 128.86C82.8439 128.72 82.7425 128.605 82.6099 128.54L13.6099 71.3C13.1981 70.9559 12.8649 70.5275 12.6329 70.0436C12.4008 69.5597 12.2754 69.0316 12.265 68.4951C12.2545 67.9585 12.3594 67.426 12.5724 66.9334C12.7855 66.4409 13.1018 65.9998 13.4999 65.64L82.9199 5Z" stroke="#3AFFA7" stroke-width="9" stroke-linecap="round" stroke-linejoin="round"/>
</svg>
