<?xml version="1.0" encoding="UTF-8" standalone="no"?>
<!-- Created with Inkscape (http://www.inkscape.org/) -->

<svg
   width="7.8052082mm"
   height="7.8052082mm"
   viewBox="0 0 7.8052082 7.8052082"
   version="1.1"
   id="svg3113"
   inkscape:version="1.1 (c4e8f9ed74, 2021-05-24)"
   sodipodi:docname="Twitter.svg"
   xmlns:inkscape="http://www.inkscape.org/namespaces/inkscape"
   xmlns:sodipodi="http://sodipodi.sourceforge.net/DTD/sodipodi-0.dtd"
   xmlns="http://www.w3.org/2000/svg"
   xmlns:svg="http://www.w3.org/2000/svg">
  <sodipodi:namedview
     id="namedview3115"
     pagecolor="#ffffff"
     bordercolor="#666666"
     borderopacity="1.0"
     inkscape:pageshadow="2"
     inkscape:pageopacity="0.0"
     inkscape:pagecheckerboard="true"
     inkscape:document-units="mm"
     showgrid="false"
     fit-margin-top="0"
     fit-margin-left="0"
     fit-margin-right="0"
     fit-margin-bottom="0"
     inkscape:snap-page="true"
     inkscape:snap-bbox="true"
     inkscape:bbox-paths="true"
     inkscape:bbox-nodes="true"
     inkscape:zoom="24.886869"
     inkscape:cx="13.15955"
     inkscape:cy="21.718281"
     inkscape:window-width="2560"
     inkscape:window-height="1381"
     inkscape:window-x="0"
     inkscape:window-y="0"
     inkscape:window-maximized="1"
     inkscape:current-layer="layer1" />
  <defs
     id="defs3110" />
  <g
     inkscape:label="Layer 1"
     inkscape:groupmode="layer"
     id="layer1"
     transform="translate(-113.12833,-105.984)">
    <path
       class="st30"
       d="m 117.03093,113.54142 c 2.01945,0 3.65482,-1.63785 3.65482,-3.65482 0,-2.01697 -1.63786,-3.65482 -3.65482,-3.65482 -2.01696,0 -3.65482,1.63785 -3.65482,3.65482 0,2.01697 1.63786,3.65482 3.65482,3.65482 z"
       id="path4481"
       style="fill:none;stroke:#ffffff;stroke-width:0.495569;stroke-miterlimit:4;stroke-dasharray:none" />
    <path
       class="st0"
       d="m 118.98222,108.67612 c -0.14288,0.0635 -0.29634,0.10583 -0.46038,0.127 0.16404,-0.0979 0.29104,-0.25664 0.3519,-0.44185 -0.15346,0.0926 -0.32544,0.15875 -0.508,0.19314 -0.14552,-0.1561 -0.35454,-0.25135 -0.58473,-0.25135 -0.44186,0 -0.79904,0.35719 -0.79904,0.79904 0,0.0635 0.008,0.12435 0.0212,0.18256 -0.6641,-0.0344 -1.25412,-0.35189 -1.64835,-0.83608 -0.0688,0.11906 -0.10848,0.25665 -0.10848,0.40217 0,0.27781 0.14023,0.52123 0.35454,0.6641 -0.13229,-0.005 -0.254,-0.0397 -0.36248,-0.10054 v 0.0106 c 0,0.38629 0.27517,0.71173 0.6403,0.78317 -0.0661,0.0185 -0.13759,0.0291 -0.21167,0.0291 -0.0503,0 -0.10054,-0.005 -0.15081,-0.0132 0.10053,0.3175 0.39687,0.54769 0.74612,0.55563 -0.27252,0.21431 -0.61912,0.34131 -0.99219,0.34131 -0.0635,0 -0.127,-0.003 -0.1905,-0.0106 0.35455,0.22754 0.77523,0.35983 1.22502,0.35983 1.47109,0 2.27542,-1.21708 2.27542,-2.27542 0,-0.0344 0,-0.0688 -0.003,-0.10318 0.1614,-0.11377 0.29634,-0.254 0.40482,-0.4154"
       id="path4477"
       style="fill:#ffffff;stroke-width:0.264583" />
  </g>
</svg>
