<svg width="275" height="164" viewBox="0 0 275 164" fill="none" xmlns="http://www.w3.org/2000/svg">
<path d="M193.628 60.7411L227.653 82.0284L193.628 103.344C196.095 96.7158 197.545 89.5265 197.545 82.0284C197.545 74.5162 196.095 67.3829 193.628 60.7411ZM81.0879 60.7411C78.6347 67.3829 77.1714 74.5439 77.1714 82.0284C77.1714 89.5265 78.5792 96.6878 81.0879 103.316L47.0778 82.0284L81.0879 60.7411ZM137.371 34.0758C163.715 34.0758 184.9 55.4752 184.9 82.0287C184.9 108.596 163.672 129.953 137.371 129.953C110.999 129.953 89.7839 108.553 89.7839 82.0287C89.7839 55.504 111.04 34.0758 137.371 34.0758ZM137.371 10.7665L131.475 14.4313L108.17 29.0206C106.497 29.9614 104.908 30.9583 103.333 32.0676L23.5635 82.0264L103.333 131.96C104.936 133.055 106.58 134.08 108.281 135.049L137.399 153.233L166.029 135.302C166.098 135.246 166.182 135.176 166.252 135.147C168.036 134.165 169.764 133.055 171.437 131.876L251.195 82.0284L171.412 32.0948C169.823 30.9995 168.192 29.9324 166.478 28.9916L137.371 10.7665Z" fill="#41BEA5"/>
<path d="M262.888 93.3448C259.223 93.3869 255.222 94.3838 251.194 96.7569L149.134 160.605L150.151 161.223C153.023 162.908 156.8 164.088 160.982 164.004C164.647 163.976 168.662 162.993 172.69 160.605L192.748 148.052L274.708 96.7167L273.662 96.0707C270.777 94.4559 267.07 93.3186 262.888 93.3467" fill="#41BEA5"/>
<path d="M113.736 0.00879376C110.07 0.0368322 106.07 1.03385 102.028 3.40687L81.9701 15.9882L-0.0185547 67.3094C5.29213 70.876 14.2685 72.7154 23.524 67.3094L125.584 3.43203L124.567 2.81418C121.695 1.10111 117.96 -0.0643584 113.736 0.00584555" fill="#41BEA5"/>
</svg>
