<svg width="1709" height="829" viewBox="0 0 1709 829" fill="none" xmlns="http://www.w3.org/2000/svg">
<g opacity="0.84">
<g opacity="0.84">
<path opacity="0.84" d="M54.31 163.18H53.31V551.61H54.31V163.18Z" fill="#D1CCC9"/>
<path opacity="0.84" d="M109.92 163.18H108.92V807.54H109.92V163.18Z" fill="#D1CCC9"/>
<path opacity="0.84" d="M388.19 164.62H387.19V731.02H388.19V164.62Z" fill="#D1CCC9"/>
<path opacity="0.84" d="M443.75 161.11H442.75V747.92H443.75V161.11Z" fill="#D1CCC9"/>
<path opacity="0.84" d="M500.6 161.11H499.6V760.29H500.6V161.11Z" fill="#D1CCC9"/>
<path opacity="0.84" d="M556.64 164.62H555.64V754.39H556.64V164.62Z" fill="#D1CCC9"/>
<path opacity="0.84" d="M611.26 164.62H610.26V738.38H611.26V164.62Z" fill="#D1CCC9"/>
<path opacity="0.84" d="M668.99 0H667.99V443.41H668.99V0Z" fill="#D1CCC9"/>
<path opacity="0.84" d="M726.3 163.18H725.3V438.76H726.3V163.18Z" fill="#D1CCC9"/>
<path opacity="0.84" d="M777.78 163.18H776.78V438.76H777.78V163.18Z" fill="#D1CCC9"/>
<path opacity="0.84" d="M1159.94 163.18H1158.94V438.76H1159.94V163.18Z" fill="#D1CCC9"/>
<path opacity="0.84" d="M1211.42 163.18H1210.42V438.76H1211.42V163.18Z" fill="#D1CCC9"/>
<g opacity="0.84">
<g opacity="0.84">
<path opacity="0.84" d="M1280.05 328.54H1279.05V384.15H1280.05V328.54Z" fill="#D1CCC9"/>
<path opacity="0.84" d="M1331.53 328.54H1330.53V384.15H1331.53V328.54Z" fill="#D1CCC9"/>
</g>
<g opacity="0.84">
<path opacity="0.84" d="M1385.83 328.54H1384.83V384.15H1385.83V328.54Z" fill="#D1CCC9"/>
<path opacity="0.84" d="M1437.31 328.54H1436.31V384.15H1437.31V328.54Z" fill="#D1CCC9"/>
</g>
</g>
<g opacity="0.84">
<g opacity="0.84">
<path opacity="0.84" d="M1595.62 328.54H1594.62V384.15H1595.62V328.54Z" fill="#D1CCC9"/>
<path opacity="0.84" d="M1647.1 328.54H1646.1V384.15H1647.1V328.54Z" fill="#D1CCC9"/>
</g>
</g>
<path opacity="0.84" d="M834.22 216.81H833.22V438.76H834.22V216.81Z" fill="#D1CCC9"/>
<path opacity="0.84" d="M888.9 271.71H887.9V438.75H888.9V271.71Z" fill="#D1CCC9"/>
<path opacity="0.84" d="M941.44 163.18H940.44V438.76H941.44V163.18Z" fill="#D1CCC9"/>
<path opacity="0.84" d="M992.91 163.18H991.91V438.76H992.91V163.18Z" fill="#D1CCC9"/>
<path opacity="0.84" d="M1049.36 216.81H1048.36V438.76H1049.36V216.81Z" fill="#D1CCC9"/>
<path opacity="0.84" d="M1104.04 271.71H1103.04V438.75H1104.04V271.71Z" fill="#D1CCC9"/>
<path opacity="0.84" d="M165.44 163.18H164.44V828.78H165.44V163.18Z" fill="#D1CCC9"/>
<path opacity="0.84" d="M221.05 163.18H220.05V791.95H221.05V163.18Z" fill="#D1CCC9"/>
<path opacity="0.84" d="M277.35 163.18H276.35V750.46H277.35V163.18Z" fill="#D1CCC9"/>
<path opacity="0.84" d="M334.54 163.18H333.54V738.39H334.54V163.18Z" fill="#D1CCC9"/>
</g>
<g opacity="0.84">
<path opacity="0.84" d="M1708.98 384.58H3.14999V385.58H1708.98V384.58Z" fill="#D1CCC9"/>
<path opacity="0.84" d="M668.49 441.08H3.14999V442.08H668.49V441.08Z" fill="#D1CCC9"/>
<path opacity="0.84" d="M1708.98 327.09H3.14999V328.09H1708.98V327.09Z" fill="#D1CCC9"/>
<path opacity="0.84" d="M1389.95 271.21H3.14999V272.21H1389.95V271.21Z" fill="#D1CCC9"/>
<path opacity="0.84" d="M1304.29 215.61H3.14999V216.61H1304.29V215.61Z" fill="#D1CCC9"/>
</g>
<path opacity="0.84" d="M611.17 492.95H0V493.95H611.17V492.95Z" fill="#D1CCC9"/>
<path opacity="0.84" d="M611.17 550.17H0V551.17H611.17V550.17Z" fill="#D1CCC9"/>
<path opacity="0.84" d="M610.7 606.83H55.22V607.83H610.7V606.83Z" fill="#D1CCC9"/>
<path opacity="0.84" d="M610.7 664.84H0V665.84H610.7V664.84Z" fill="#D1CCC9"/>
<path opacity="0.84" d="M610.7 718.69H0V719.69H610.7V718.69Z" fill="#D1CCC9"/>
<path opacity="0.84" d="M267.77 775.35H55.18V776.35H267.77V775.35Z" fill="#D1CCC9"/>
</g>
</svg>
