<svg width="1199" height="709" viewBox="0 0 1199 709" fill="none" xmlns="http://www.w3.org/2000/svg">
<g opacity="0.84">
<g opacity="0.84">
<path opacity="0.84" d="M37.05 42.79V431.22" stroke="#D1CCC9" stroke-miterlimit="10"/>
<path opacity="0.84" d="M92.6602 42.79V687.16" stroke="#D1CCC9" stroke-miterlimit="10"/>
<path opacity="0.84" d="M370.93 44.23V610.64" stroke="#D1CCC9" stroke-miterlimit="10"/>
<path opacity="0.84" d="M426.49 40.72V627.53" stroke="#D1CCC9" stroke-miterlimit="10"/>
<path opacity="0.84" d="M483.34 40.72V639.9" stroke="#D1CCC9" stroke-miterlimit="10"/>
<path opacity="0.84" d="M539.38 44.23V634.01" stroke="#D1CCC9" stroke-miterlimit="10"/>
<path opacity="0.84" d="M594 44.23V618" stroke="#D1CCC9" stroke-miterlimit="10"/>
<path opacity="0.84" d="M651.73 -120.39V323.03" stroke="#D1CCC9" stroke-miterlimit="10"/>
<path opacity="0.84" d="M709.04 42.79V318.37" stroke="#D1CCC9" stroke-miterlimit="10"/>
<path opacity="0.84" d="M760.52 42.79V318.37" stroke="#D1CCC9" stroke-miterlimit="10"/>
<path opacity="0.84" d="M1142.68 42.79V318.37" stroke="#D1CCC9" stroke-miterlimit="10"/>
<path opacity="0.84" d="M1194.16 42.79V318.37" stroke="#D1CCC9" stroke-miterlimit="10"/>
<path opacity="0.84" d="M816.96 96.4199V318.37" stroke="#D1CCC9" stroke-miterlimit="10"/>
<path opacity="0.84" d="M871.64 151.33V318.37" stroke="#D1CCC9" stroke-miterlimit="10"/>
<path opacity="0.84" d="M924.18 42.79V318.37" stroke="#D1CCC9" stroke-miterlimit="10"/>
<path opacity="0.84" d="M975.65 42.79V318.37" stroke="#D1CCC9" stroke-miterlimit="10"/>
<path opacity="0.84" d="M1032.1 96.4199V318.37" stroke="#D1CCC9" stroke-miterlimit="10"/>
<path opacity="0.84" d="M1086.78 151.33V318.37" stroke="#D1CCC9" stroke-miterlimit="10"/>
<path opacity="0.84" d="M148.19 42.79V708.4" stroke="#D1CCC9" stroke-miterlimit="10"/>
<path opacity="0.84" d="M203.79 42.79V671.56" stroke="#D1CCC9" stroke-miterlimit="10"/>
<path opacity="0.84" d="M260.09 42.79V630.08" stroke="#D1CCC9" stroke-miterlimit="10"/>
<path opacity="0.84" d="M317.29 42.79V618" stroke="#D1CCC9" stroke-miterlimit="10"/>
</g>
<g opacity="0.84">
<path opacity="0.84" d="M-13.6101 264.7H1692.22" stroke="#D1CCC9" stroke-miterlimit="10"/>
<path opacity="0.84" d="M-13.6101 321.2H651.73" stroke="#D1CCC9" stroke-miterlimit="10"/>
<path opacity="0.84" d="M-13.6101 207.21H1692.22" stroke="#D1CCC9" stroke-miterlimit="10"/>
<path opacity="0.84" d="M-13.6101 151.33H1373.19" stroke="#D1CCC9" stroke-miterlimit="10"/>
<path opacity="0.84" d="M-13.6101 95.72H1287.53" stroke="#D1CCC9" stroke-miterlimit="10"/>
</g>
<path opacity="0.84" d="M-16.76 373.06H594.41" stroke="#D1CCC9" stroke-miterlimit="10"/>
<path opacity="0.84" d="M-16.76 430.28H594.41" stroke="#D1CCC9" stroke-miterlimit="10"/>
<path opacity="0.84" d="M38.46 486.94H593.94" stroke="#D1CCC9" stroke-miterlimit="10"/>
<path opacity="0.84" d="M-16.76 544.95H593.94" stroke="#D1CCC9" stroke-miterlimit="10"/>
<path opacity="0.84" d="M-16.76 598.8H593.94" stroke="#D1CCC9" stroke-miterlimit="10"/>
<path opacity="0.84" d="M38.4199 655.47H251" stroke="#D1CCC9" stroke-miterlimit="10"/>
</g>
</svg>
