<svg width="449" height="449" viewBox="0 0 449 449" fill="none" xmlns="http://www.w3.org/2000/svg">
<path d="M224.447 449C348.405 449 448.894 348.488 448.894 224.5C448.894 100.512 348.405 0 224.447 0C100.488 0 0 100.512 0 224.5C0 348.488 100.488 449 224.447 449Z" fill="url(#paint0_radial)"/>
<path d="M110.176 110.204C158.494 61.8735 229.799 50.5465 288.891 76.2223L258.053 107.067C216.809 95.298 170.586 105.657 138.108 138.143C95.1808 181.08 90.8999 248.036 125.266 295.764L171.12 249.899L199.053 277.838L124.987 351.921C119.852 347.901 114.904 343.527 110.176 338.796C47.0664 275.673 47.0664 173.328 110.176 110.204Z" fill="white"/>
<path d="M160.005 372.778C219.097 398.454 290.4 387.126 338.719 338.796C401.829 275.673 401.829 173.329 338.719 110.204C333.991 105.475 329.044 101.1 323.909 97.079L249.843 171.162L277.775 199.101L323.63 153.236C357.996 200.964 353.715 267.92 310.787 310.857C278.309 343.344 232.086 353.703 190.842 341.934L160.005 372.778Z" fill="white"/>
<path d="M252.38 224.5L224.448 196.561L196.516 224.5L224.448 252.439L252.38 224.5Z" fill="white"/>
<path d="M171.124 143.222L199.057 171.162L171.124 199.101L143.191 171.162L171.124 143.222Z" fill="white"/>
<path d="M305.706 277.838L277.773 249.899L249.841 277.838L277.773 305.779L305.706 277.838Z" fill="white"/>
<defs>
<radialGradient id="paint0_radial" cx="0" cy="0" r="1" gradientUnits="userSpaceOnUse" gradientTransform="translate(224.447 224.5) rotate(90) scale(224.5 224.447)">
<stop stop-color="#304FFE"/>
<stop offset="1" stop-color="#3D5AFE"/>
</radialGradient>
</defs>
</svg>
