<?xml version="1.0" encoding="UTF-8" standalone="no"?>
<!-- Created with Inkscape (http://www.inkscape.org/) -->

<svg
   width="9.599329mm"
   height="15.927917mm"
   viewBox="0 0 9.5993291 15.927917"
   version="1.1"
   id="svg7273"
   inkscape:version="1.1 (c4e8f9ed74, 2021-05-24)"
   sodipodi:docname="Ethereum.svg"
   xmlns:inkscape="http://www.inkscape.org/namespaces/inkscape"
   xmlns:sodipodi="http://sodipodi.sourceforge.net/DTD/sodipodi-0.dtd"
   xmlns="http://www.w3.org/2000/svg"
   xmlns:svg="http://www.w3.org/2000/svg">
  <sodipodi:namedview
     id="namedview7275"
     pagecolor="#ffffff"
     bordercolor="#666666"
     borderopacity="1.0"
     inkscape:pageshadow="2"
     inkscape:pageopacity="0.0"
     inkscape:pagecheckerboard="0"
     inkscape:document-units="mm"
     showgrid="false"
     fit-margin-top="0"
     fit-margin-left="0"
     fit-margin-right="0"
     fit-margin-bottom="0"
     inkscape:zoom="0.77771465"
     inkscape:cx="35.360013"
     inkscape:cy="271.95065"
     inkscape:window-width="2560"
     inkscape:window-height="1381"
     inkscape:window-x="0"
     inkscape:window-y="0"
     inkscape:window-maximized="1"
     inkscape:current-layer="layer1" />
  <defs
     id="defs7270" />
  <g
     inkscape:label="Layer 1"
     inkscape:groupmode="layer"
     id="layer1"
     transform="translate(-187.01372,-15.232301)">
    <g
       id="g4361"
       transform="matrix(0.26458333,0,0,0.26458333,32.691513,-182.32678)"
       style="fill:#ffffff;stroke:none">
      <path
         class="st25"
         d="m 601.4,785.88 c -0.18,0 -0.37,-0.05 -0.53,-0.15 l -17.13,-10.66 c -0.23,-0.14 -0.39,-0.37 -0.45,-0.63 -0.06,-0.26 -0.01,-0.54 0.13,-0.76 l 17.05,-26.53 c 0.18,-0.29 0.5,-0.46 0.84,-0.46 0,0 0,0 0,0 0.34,0 0.65,0.17 0.84,0.46 l 17.21,26.53 c 0.15,0.22 0.2,0.5 0.14,0.76 -0.06,0.26 -0.22,0.49 -0.45,0.63 l -17.13,10.66 c -0.16,0.1 -0.34,0.15 -0.52,0.15 z m -15.74,-11.98 15.74,9.8 15.73,-9.8 -15.81,-24.38 z"
         id="path4351"
         style="fill:#ffffff;stroke:none" />
      <path
         class="st25"
         d="m 601.4,785.88 c -0.55,0 -1,-0.45 -1,-1 v -37.2 c 0,-0.55 0.45,-1 1,-1 0.55,0 1,0.45 1,1 v 37.2 c 0,0.55 -0.45,1 -1,1 z"
         id="path4353"
         style="fill:#ffffff;stroke:none" />
      <path
         class="st25"
         d="m 618.53,775.21 c -0.13,0 -0.26,-0.02 -0.38,-0.08 l -16.74,-6.96 -16.74,6.96 c -0.51,0.21 -1.1,-0.03 -1.31,-0.54 -0.21,-0.51 0.03,-1.1 0.54,-1.31 l 17.13,-7.12 c 0.25,-0.1 0.52,-0.1 0.77,0 l 17.13,7.12 c 0.51,0.21 0.75,0.8 0.54,1.31 -0.18,0.39 -0.55,0.62 -0.94,0.62 z"
         id="path4355"
         style="fill:#ffffff;stroke:none" />
      <path
         class="st25"
         d="m 601.4,806.88 c -0.33,0 -0.63,-0.16 -0.82,-0.43 L 583.45,781.9 c -0.27,-0.39 -0.23,-0.91 0.09,-1.25 0.32,-0.34 0.84,-0.42 1.24,-0.18 l 16.62,9.9 16.62,-9.9 c 0.4,-0.24 0.92,-0.17 1.24,0.18 0.32,0.35 0.36,0.87 0.09,1.25 l -17.13,24.55 c -0.19,0.27 -0.5,0.43 -0.82,0.43 z m -13.65,-22.32 13.65,19.56 13.65,-19.56 -13.14,7.83 c -0.32,0.19 -0.71,0.19 -1.02,0 z"
         id="path4357"
         style="fill:#ffffff;stroke:none" />
      <path
         class="st25"
         d="m 601.4,806.55 c -0.55,0 -1,-0.45 -1,-1 v -14.01 c 0,-0.55 0.45,-1 1,-1 0.55,0 1,0.45 1,1 v 14.01 c 0,0.55 -0.45,1 -1,1 z"
         id="path4359"
         style="fill:#ffffff;stroke:none" />
    </g>
  </g>
</svg>
