<svg width="231" height="238" viewBox="0 0 231 238" fill="none" xmlns="http://www.w3.org/2000/svg">
<path d="M211.895 59.5L203.15 68.2558C206.745 73.7922 209.01 80.0869 209.769 86.6466C210.528 93.2063 209.759 99.8528 207.522 106.065C203.651 116.814 195.686 125.591 185.369 130.476C175.052 135.361 163.223 135.957 152.468 132.134C149.385 131.038 146.448 129.568 143.723 127.756L115.699 155.814L91.2527 131.139C85.4959 134.98 78.9263 137.429 72.0624 138.292C65.1984 139.155 58.228 138.41 51.7011 136.114C46.2375 134.166 41.2121 131.157 36.9136 127.258C32.6151 123.36 29.1283 118.65 26.6535 113.398C24.1786 108.147 22.7646 102.457 22.4926 96.6568C22.2206 90.8564 23.096 85.0593 25.0684 79.5987C26.281 76.1402 27.9522 72.8606 30.0372 69.8478L19.5034 59.301L17.5159 62.6839C6.86057 80.1349 1.03704 100.111 0.643437 120.561C0.249838 141.011 5.30035 161.197 15.2762 179.046C25.2521 196.895 39.7937 211.764 57.4074 222.125C75.0211 232.485 95.072 237.965 115.5 238H115.699C136.109 238.011 156.154 232.585 173.777 222.277C191.4 211.97 205.966 197.153 215.981 179.348C225.995 161.542 231.098 141.389 230.764 120.957C230.43 100.525 224.672 80.55 214.081 63.0819L211.895 59.5Z" fill="#00A6C4"/>
<path d="M42.9556 82.7826C39.8593 86.9161 38.1855 91.9436 38.1855 97.1104C38.1961 103.335 40.6703 109.301 45.0663 113.703C49.4622 118.104 55.4214 120.581 61.6382 120.592C66.8357 120.619 71.8857 118.863 75.9484 115.617L42.9556 82.7826Z" fill="#00A6C4"/>
<path d="M158.032 113.627C161.892 116.273 166.472 117.663 171.15 117.607C177.367 117.596 183.326 115.119 187.722 110.718C192.118 106.316 194.592 100.35 194.603 94.1254C194.629 89.4465 193.244 84.8687 190.627 80.9916L158.032 113.627Z" fill="#00A6C4"/>
<path d="M116.096 138.303L21.0928 42.7843L24.8691 38.8043C36.3823 26.5104 50.2998 16.7208 65.7551 10.045C81.2104 3.36908 97.8727 -0.0501859 114.705 -4.88362e-06H114.904C132.144 0.0248086 149.188 3.668 164.935 10.6945C180.683 17.7211 194.784 27.9748 206.329 40.7943L209.907 44.7742L116.096 138.303ZM36.5954 42.7843L116.096 122.582L194.603 44.3762C173.542 23.1974 144.952 11.2462 115.102 11.1438H114.904C85.6631 10.9819 57.5335 22.3477 36.5954 42.7843Z" fill="#00A6C4"/>
</svg>
