<?xml version="1.0" encoding="UTF-8" standalone="no"?>
<svg
   width="231"
   height="238"
   viewBox="0 0 231 238"
   fill="none"
   version="1.1"
   id="svg10"
   sodipodi:docname="gnosis-logo.svg"
   inkscape:version="1.1 (c4e8f9ed74, 2021-05-24)"
   xmlns:inkscape="http://www.inkscape.org/namespaces/inkscape"
   xmlns:sodipodi="http://sodipodi.sourceforge.net/DTD/sodipodi-0.dtd"
   xmlns="http://www.w3.org/2000/svg"
   xmlns:svg="http://www.w3.org/2000/svg">
  <defs
     id="defs14" />
  <sodipodi:namedview
     id="namedview12"
     pagecolor="#ffffff"
     bordercolor="#666666"
     borderopacity="1.0"
     inkscape:pageshadow="2"
     inkscape:pageopacity="0.0"
     inkscape:pagecheckerboard="0"
     showgrid="false"
     inkscape:zoom="3.6680672"
     inkscape:cx="94.191294"
     inkscape:cy="119"
     inkscape:window-width="2560"
     inkscape:window-height="1381"
     inkscape:window-x="0"
     inkscape:window-y="0"
     inkscape:window-maximized="1"
     inkscape:current-layer="svg10" />
  <g
     id="g870"
     transform="matrix(2.3434556,0,0,2.3434556,-200.12832,7.9260738)">
    <path
       d="m 136.04,9.84 c 2.814,0.181 5.6,0.664 8.31,1.44 a 54.56,54.56 0 0 0 3.63,-8.54 4.07,4.07 0 0 1 4.209,-2.729 4.07,4.07 0 0 1 3.661,3.429 c 0.334,2.166 0.468,4.359 0.4,6.55 16.13,-3.35 28.14,-6.17 27.71,-0.06 l -0.06,0.22 c -3.61,9.93 -10.81,17.87 -19.75,21.79 a 4.07,4.07 0 0 0 -2.119,1.687 c -0.493,0.788 -0.701,1.72 -0.591,2.643 v 25.69 a 67.15,67.15 0 0 0 -53.51,0 V 36.27 c 0.11,-0.923 -0.098,-1.855 -0.591,-2.643 A 4.07,4.07 0 0 0 105.22,31.94 C 96.28,28.02 89.08,20.08 85.47,10.15 L 85.41,9.93 c -0.43,-6.11 11.58,-3.29 27.71,0.06 -0.068,-2.191 0.066,-4.384 0.4,-6.55 a 4.07,4.07 0 0 1 3.661,-3.429 4.07,4.07 0 0 1 4.209,2.729 54.56,54.56 0 0 0 3.63,8.54 c 2.71,-0.776 5.496,-1.259 8.31,-1.44 z"
       fill="#193151"
       id="path2" />
    <path
       d="m 134.97,12.8 c 3.667,0.147 7.294,0.821 10.77,2 2.128,-3.496 3.833,-7.232 5.08,-11.13 a 1,1 0 0 1 1.1,-0.73 1,1 0 0 1 0.68,0.264 c 0.186,0.171 0.3,0.405 0.32,0.656 0.443,3.222 0.49,6.486 0.14,9.72 1.92,-0.29 2.4,-0.36 4.94,-0.93 16.18,-3.56 21.48,-3.7 22.93,-3.09 -3.38,8.94 -9.91,16.07 -18,19.6 a 7,7 0 0 0 -4.49,7.1 v 21.33 a 68.21,68.21 0 0 0 -47.51,0 V 36.26 a 7,7 0 0 0 -1.062,-4.298 c -0.809,-1.28 -2.012,-2.263 -3.428,-2.802 -8.06,-3.53 -14.59,-10.66 -18,-19.6 1.45,-0.61 6.75,-0.47 22.93,3.09 2.54,0.57 3,0.64 4.94,0.93 -0.35,-3.234 -0.303,-6.498 0.14,-9.72 0.02,-0.251 0.134,-0.485 0.32,-0.656 a 1,1 0 0 1 0.68,-0.264 1,1 0 0 1 1.1,0.73 c 1.247,3.898 2.952,7.634 5.08,11.13 3.476,-1.179 7.103,-1.853 10.77,-2 z"
       fill="#ffffff"
       id="path4" />
    <path
       d="m 121.3,40.39 a 5.16,5.16 0 0 1 -3.606,-1.529 c -0.955,-0.964 -1.492,-2.265 -1.494,-3.621 a 4.9,4.9 0 0 1 0.428,-1.869 c 0.264,-0.589 0.642,-1.119 1.112,-1.561 a 5.13,5.13 0 0 1 3.55,-1.42 c 2.029,0.136 4.017,0.634 5.87,1.47 2.07,0.9 3.8,2.15 3.79,3.53 -0.01,1.38 -1.74,2.62 -3.81,3.52 -1.847,0.827 -3.823,1.327 -5.84,1.48 z"
       fill="#ffd700"
       id="path6" />
    <g
       fill="#193151"
       id="g10">
      <path
         d="m 121.25,41.75 a 6.52,6.52 0 0 1 -6.42,-6.54 c 0.025,-0.828 0.215,-1.642 0.559,-2.396 0.344,-0.754 0.833,-1.431 1.441,-1.994 a 6.43,6.43 0 0 1 4.48,-1.79 18.42,18.42 0 0 1 6.4,1.58 c 3,1.32 4.62,3 4.62,4.78 0,1.78 -1.61,3.45 -4.64,4.77 a 18.72,18.72 0 0 1 -6.37,1.59 h -0.06 z m 0,-10 a 3.74,3.74 0 0 0 -2.6,1 3.5,3.5 0 0 0 -0.81,1.122 3.49,3.49 0 0 0 -0.31,1.348 3.68,3.68 0 0 0 0.281,1.424 3.7,3.7 0 0 0 0.809,1.206 3.74,3.74 0 0 0 2.64,1.13 16.38,16.38 0 0 0 5.3,-1.37 c 2.2,-1 3,-1.88 3,-2.28 0,-0.4 -0.79,-1.32 -3,-2.27 a 16.15,16.15 0 0 0 -5.32,-1.36 z m -24.17,-17.5 12.5,2.9 a 0.64,0.64 0 0 1 0.501,0.573 0.63,0.63 0 0 1 -0.094,0.39 0.64,0.64 0 0 1 -0.307,0.257 c -2.49,1 -7,2.5 -9.13,0.9 -3.09,-2.3 -4.05,-3.58 -4.24,-4.28 a 0.63,0.63 0 0 1 0.77,-0.74 z"
         id="path8" />
    </g>
    <path
       d="m 148.15,40.39 a 5.14,5.14 0 0 0 3.612,-1.523 c 0.956,-0.965 1.491,-2.269 1.488,-3.627 a 4.9,4.9 0 0 0 -0.428,-1.869 c -0.264,-0.589 -0.642,-1.119 -1.112,-1.561 a 5.13,5.13 0 0 0 -3.55,-1.42 c -2.029,0.136 -4.017,0.634 -5.87,1.47 -2.07,0.9 -3.8,2.15 -3.79,3.53 0.01,1.38 1.74,2.62 3.81,3.52 1.847,0.827 3.823,1.327 5.84,1.48 z"
       fill="#ffd700"
       id="path12" />
    <g
       fill="#193151"
       id="g16">
      <path
         d="m 148.2,41.75 a 6.52,6.52 0 0 0 6.42,-6.54 c -0.025,-0.828 -0.215,-1.642 -0.559,-2.396 -0.344,-0.754 -0.833,-1.431 -1.441,-1.994 a 6.43,6.43 0 0 0 -4.48,-1.79 18.42,18.42 0 0 0 -6.4,1.58 c -3,1.32 -4.62,3 -4.62,4.78 0,1.78 1.61,3.45 4.64,4.77 a 18.72,18.72 0 0 0 6.37,1.59 h 0.06 z m 0,-10 a 3.74,3.74 0 0 1 2.6,1 3.5,3.5 0 0 1 0.81,1.122 3.49,3.49 0 0 1 0.31,1.348 3.68,3.68 0 0 1 -0.281,1.424 3.7,3.7 0 0 1 -0.809,1.206 3.74,3.74 0 0 1 -2.64,1.13 16.38,16.38 0 0 1 -5.3,-1.37 c -2.2,-1 -3,-1.88 -3,-2.28 0,-0.4 0.79,-1.32 3,-2.27 a 16.15,16.15 0 0 1 5.32,-1.36 z m 24.17,-17.5 -12.5,2.9 a 0.64,0.64 0 0 0 -0.501,0.573 0.63,0.63 0 0 0 0.094,0.39 0.64,0.64 0 0 0 0.307,0.257 c 2.49,1 7,2.5 9.13,0.9 3.09,-2.3 4.05,-3.58 4.24,-4.28 0.022,-0.104 0.017,-0.213 -0.015,-0.315 -0.032,-0.102 -0.088,-0.194 -0.165,-0.268 a 0.63,0.63 0 0 0 -0.59,-0.157 z"
         id="path14" />
    </g>
    <path
       d="m 164.19,63.95 c -5.13,-5.54 -11.85,-8 -19,-9.46 a 43.11,43.11 0 0 0 -10.21,-1 h -0.49 a 43.11,43.11 0 0 0 -10.21,1 c -7.16,1.42 -13.88,3.92 -19,9.46 -4.15,4.5 -5.32,10.11 -2.69,14.8 1.695,3.263 4.22,6.023 7.32,8 a 47.12,47.12 0 0 0 19,6.07 41.92,41.92 0 0 0 5.57,0.29 h 0.49 a 41.92,41.92 0 0 0 5.57,-0.29 47.12,47.12 0 0 0 19,-6.07 c 3.1,-1.977 5.625,-4.737 7.32,-8 2.65,-4.69 1.48,-10.3 -2.67,-14.8 z"
       fill="#cbe5ef"
       id="path18" />
    <path
       d="m 161.35,63.32 c -4.61,-4.2 -10.64,-6.09 -17.07,-7.16 -3.066,-0.6 -6.186,-0.882 -9.31,-0.84 h -0.45 c -3.129,-0.056 -6.256,0.212 -9.33,0.8 -6.43,1.07 -12.46,3 -17.07,7.16 -3.73,3.4 -4.77,7.65 -2.42,11.2 a 17.23,17.23 0 0 0 6.58,6.08 c 5.36,2.576 11.151,4.135 17.08,4.6 a 47.63,47.63 0 0 0 5.32,0.22 h 0.13 a 47.63,47.63 0 0 0 5.32,-0.22 c 5.929,-0.465 11.72,-2.024 17.08,-4.6 a 17.23,17.23 0 0 0 6.58,-6.08 c 2.33,-3.56 1.29,-7.81 -2.44,-11.16 z"
       fill="#ffffff"
       id="path20" />
    <g
       fill="#193151"
       id="g24">
      <path
         d="m 121.71,75.15 c -2.91,1.42 -5.62,0 -6.14,-3.22 -0.57,-3.45 4.08,-11.65 5.15,-5.45 1.07,6.2 5.83,-2.47 5.86,1.41 -0.078,1.538 -0.572,3.025 -1.43,4.304 -0.858,1.279 -2.047,2.3 -3.44,2.956 z m 43.68,-12.31 c -6.11,-6.6 -14.28,-8.85 -19.89,-10 h -0.13 a 42.16,42.16 0 0 0 -8.94,-1 h -3.41 a 42.16,42.16 0 0 0 -8.94,1 h -0.13 c -5.61,1.11 -13.78,3.36 -19.89,10 -4.72,5.1 -5.83,11.51 -2.92,16.71 a 22.35,22.35 0 0 0 7.91,8.64 c 5.55,3.34 11.8,5.34 19.66,6.29 1.755,0.214 3.522,0.321 5.29,0.32 h 1.45 c 1.768,0.001 3.535,-0.106 5.29,-0.32 7.86,-1 14.11,-3 19.66,-6.29 a 22.35,22.35 0 0 0 7.91,-8.64 c 2.91,-5.23 1.8,-11.61 -2.92,-16.71 z m 0.06,15.11 a 19.21,19.21 0 0 1 -6.74,7.43 c -5.14,3.09 -11,4.95 -18.37,5.85 a 40.44,40.44 0 0 1 -5.37,0.28 h -0.49 a 40.44,40.44 0 0 1 -5.37,-0.28 c -7.39,-0.9 -13.23,-2.76 -18.37,-5.85 A 19.21,19.21 0 0 1 104,77.95 c -2.23,-4 -1.31,-8.8 2.47,-12.88 4.21,-4.56 9.8,-7.33 18.12,-9 h 0.12 a 41.86,41.86 0 0 1 9.95,-1 h 0.13 a 41.86,41.86 0 0 1 9.95,1 h 0.12 c 8.32,1.64 13.91,4.41 18.12,9 3.78,4.08 4.7,8.9 2.47,12.88 z m -17.71,-2.8 c 2.91,1.42 5.62,0 6.14,-3.22 0.57,-3.45 -4.08,-11.65 -5.15,-5.45 -1.07,6.2 -5.83,-2.47 -5.86,1.41 0.078,1.538 0.572,3.025 1.43,4.304 0.858,1.279 2.047,2.3 3.44,2.956 z"
         id="path22" />
    </g>
  </g>
</svg>
