<svg width="139" height="145" viewBox="0 0 139 145" fill="none" xmlns="http://www.w3.org/2000/svg">
<path d="M4.44992 0.550011H12.9799C13.2899 0.550011 13.5699 0.690009 13.8099 0.970009C14.0599 1.25001 14.1799 1.54 14.1799 1.85V55.75H29.4899C30.3599 55.75 30.7899 56.18 30.7899 57.05V65.58C30.7899 66.38 30.3599 66.79 29.4899 66.79H4.44992C4.13992 66.79 3.84992 66.67 3.56992 66.42C3.28992 66.17 3.1499 65.9 3.1499 65.59V1.86001C3.1499 1.55001 3.28992 1.26 3.56992 0.980003C3.84992 0.690003 4.13992 0.550011 4.44992 0.550011Z" fill="#025099"/>
<path d="M63.1696 66.79C62.2996 66.79 61.8696 66.39 61.8696 65.58V1.85C61.8696 1.05 62.2996 0.640007 63.1696 0.640007H71.6096C72.4796 0.640007 72.9096 1.04 72.9096 1.85V65.58C72.9096 66.38 72.4796 66.79 71.6096 66.79H63.1696Z" fill="#025099"/>
<path d="M103.9 66.79C103.53 66.85 103.22 66.74 102.97 66.47C102.72 66.19 102.6 65.9 102.6 65.59V57.06C102.6 56.32 103.03 55.89 103.9 55.76C105.26 55.57 106.53 55.17 107.7 54.55C108.87 53.93 109.91 53.14 110.81 52.18C111.71 51.22 112.4 50.11 112.9 48.84C113.39 47.57 113.64 46.23 113.64 44.8V22.72C113.64 19.75 114.18 16.97 115.26 14.37C116.34 11.77 117.81 9.49001 119.67 7.50001C121.52 5.52001 123.72 3.93001 126.26 2.72001C128.79 1.51001 131.52 0.819997 134.42 0.629997C135.29 0.629997 135.72 1.03 135.72 1.84V10.37C135.72 10.68 135.6 10.97 135.35 11.25C135.1 11.53 134.79 11.67 134.42 11.67C131.64 11.98 129.32 13.17 127.46 15.24C125.61 17.31 124.68 19.8 124.68 22.71V44.79C124.68 47.7 124.14 50.45 123.06 53.05C121.98 55.65 120.51 57.94 118.65 59.91C116.79 61.89 114.6 63.48 112.06 64.69C109.53 65.91 106.81 66.6 103.9 66.79Z" fill="#025099"/>
<path d="M38.1299 78.83C38.9999 78.95 39.4298 79.42 39.4298 80.22V88.94C39.4298 89.31 39.3098 89.61 39.0598 89.82C38.8098 90.04 38.5299 90.08 38.2299 89.96C37.5499 89.84 36.8399 89.74 36.0999 89.68C35.3599 89.62 34.6198 89.59 33.8698 89.59C30.8398 89.59 27.9898 90.16 25.3298 91.31C22.6698 92.46 20.3398 94.03 18.3298 96.04C16.3198 98.05 14.7399 100.4 13.5999 103.09C12.4499 105.78 11.8799 108.64 11.8799 111.67C11.8799 114.7 12.4499 117.56 13.5999 120.25C14.7399 122.94 16.3198 125.27 18.3298 127.25C20.3398 129.23 22.6698 130.81 25.3298 131.98C27.9898 133.16 30.8298 133.74 33.8698 133.74C35.2298 133.74 36.6799 133.59 38.2299 133.28C39.0299 133.16 39.4398 133.5 39.4398 134.3V143.02C39.4398 143.33 39.3199 143.64 39.0699 143.95C38.8199 144.26 38.5099 144.45 38.1399 144.51C37.4599 144.57 36.7598 144.63 36.0498 144.7C35.3398 144.76 34.6098 144.79 33.8698 144.79C29.2898 144.79 24.9899 143.92 20.9799 142.19C16.9599 140.46 13.4598 138.09 10.4898 135.09C7.51984 132.09 5.16985 128.58 3.43985 124.56C1.70985 120.54 0.839844 116.24 0.839844 111.66C0.839844 107.08 1.70985 102.79 3.43985 98.77C5.16985 94.75 7.51984 91.24 10.4898 88.24C13.4598 85.24 16.9499 82.88 20.9799 81.14C24.9999 79.41 29.2998 78.54 33.8698 78.54C35.2798 78.55 36.6999 78.65 38.1299 78.83Z" fill="#025099"/>
<path d="M68.9299 78.09C71.9599 78.09 74.8199 78.68 77.5099 79.85C80.1999 81.03 82.5299 82.63 84.5099 84.67C86.4899 86.71 88.0599 89.11 89.2399 91.86C90.4099 94.61 90.9999 97.53 90.9999 100.63C90.9999 103.72 90.4099 106.65 89.2399 109.4C88.0599 112.15 86.4899 114.55 84.5099 116.59C82.5299 118.63 80.1999 120.24 77.5099 121.41C74.8199 122.59 71.9599 123.17 68.9299 123.17C65.8999 123.17 63.0399 122.58 60.3499 121.41C57.6599 120.24 55.3299 118.63 53.3499 116.59C51.3699 114.55 49.7899 112.15 48.6199 109.4C47.4499 106.65 46.8599 103.73 46.8599 100.63C46.8599 97.54 47.4499 94.62 48.6199 91.86C49.7899 89.11 51.3699 86.71 53.3499 84.67C55.3299 82.63 57.6599 81.02 60.3499 79.85C63.0399 78.68 65.8999 78.09 68.9299 78.09ZM86.3699 144.79H51.4899C50.6199 144.79 50.1899 144.36 50.1899 143.49V135.05C50.1899 134.18 50.6199 133.75 51.4899 133.75H86.3699C87.2399 133.75 87.6699 134.18 87.6699 135.05V143.49C87.6699 144.36 87.2299 144.79 86.3699 144.79ZM68.9299 111.67C70.4699 111.67 71.9099 111.38 73.2399 110.79C74.5699 110.2 75.7299 109.41 76.7199 108.42C77.7099 107.43 78.4999 106.27 79.0899 104.94C79.6799 103.61 79.9699 102.17 79.9699 100.63C79.9699 99.09 79.6699 97.65 79.0899 96.32C78.4999 94.99 77.7099 93.83 76.7199 92.84C75.7299 91.85 74.5699 91.06 73.2399 90.47C71.9099 89.88 70.4699 89.59 68.9299 89.59C67.3799 89.59 65.9499 89.89 64.6199 90.47C63.2899 91.06 62.1299 91.85 61.1399 92.84C60.1499 93.83 59.3599 94.99 58.7699 96.32C58.1799 97.65 57.8899 99.09 57.8899 100.63C57.8899 102.18 58.1799 103.61 58.7699 104.94C59.3599 106.27 60.1399 107.43 61.1399 108.42C62.1299 109.41 63.2899 110.2 64.6199 110.79C65.9399 111.38 67.3799 111.67 68.9299 111.67Z" fill="#025099"/>
<path d="M100.65 78.65H109.19C109.93 78.65 110.64 78.93 111.32 79.49L127 95.82V79.86C127 79.06 127.4 78.65 128.21 78.65H136.74C137.61 78.65 138.04 79.05 138.04 79.86V143.59C138.04 144.39 137.61 144.8 136.74 144.8H128.21C127.41 144.8 127 144.4 127 143.59V111.77L110.39 94.51V143.59C110.39 144.39 109.99 144.8 109.18 144.8H100.64C99.7699 144.8 99.3398 144.4 99.3398 143.59V79.86C99.3498 79.05 99.7798 78.65 100.65 78.65Z" fill="#025099"/>
</svg>
