<?xml version="1.0" encoding="UTF-8" standalone="no"?>
<!-- Created with Inkscape (http://www.inkscape.org/) -->

<svg
   width="43.031834mm"
   height="21.19577mm"
   viewBox="0 0 43.031834 21.19577"
   version="1.1"
   id="svg3666"
   inkscape:version="1.1 (c4e8f9ed74, 2021-05-24)"
   sodipodi:docname="LisconWhite.svg"
   xmlns:inkscape="http://www.inkscape.org/namespaces/inkscape"
   xmlns:sodipodi="http://sodipodi.sourceforge.net/DTD/sodipodi-0.dtd"
   xmlns="http://www.w3.org/2000/svg"
   xmlns:svg="http://www.w3.org/2000/svg">
  <sodipodi:namedview
     id="namedview3668"
     pagecolor="#ffffff"
     bordercolor="#666666"
     borderopacity="1.0"
     inkscape:pageshadow="2"
     inkscape:pageopacity="0.0"
     inkscape:pagecheckerboard="true"
     inkscape:document-units="mm"
     showgrid="false"
     inkscape:zoom="8.7988368"
     inkscape:cx="73.816575"
     inkscape:cy="30.856351"
     inkscape:window-width="2560"
     inkscape:window-height="1381"
     inkscape:window-x="0"
     inkscape:window-y="0"
     inkscape:window-maximized="1"
     inkscape:current-layer="g4455"
     fit-margin-top="0"
     fit-margin-left="0"
     fit-margin-right="0"
     fit-margin-bottom="0" />
  <defs
     id="defs3663" />
  <g
     inkscape:label="Layer 1"
     inkscape:groupmode="layer"
     id="layer1"
     transform="translate(-130.89645,-114.25779)">
    <g
       id="g4455"
       transform="matrix(0.26458333,0,0,0.26458333,88.070997,-334.27181)">
      <g
         id="g4413"
         style="fill:#ffffff">
        <path
           class="st0"
           d="m 258.27,1702.44 h 4.23 c 0.15,0 0.29,0.07 0.41,0.21 0.12,0.14 0.18,0.28 0.18,0.44 v 26.72 h 7.59 c 0.43,0 0.64,0.22 0.64,0.64 v 4.23 c 0,0.4 -0.22,0.6 -0.64,0.6 h -12.42 c -0.15,0 -0.3,-0.06 -0.44,-0.18 -0.14,-0.12 -0.21,-0.26 -0.21,-0.41 v -31.6 c 0,-0.15 0.07,-0.3 0.21,-0.44 0.15,-0.14 0.3,-0.21 0.45,-0.21 z"
           id="path4401"
           style="fill:#ffffff" />
        <path
           class="st0"
           d="m 287.39,1735.29 c -0.43,0 -0.64,-0.2 -0.64,-0.6 v -31.6 c 0,-0.4 0.21,-0.6 0.64,-0.6 h 4.19 c 0.43,0 0.64,0.2 0.64,0.6 v 31.6 c 0,0.4 -0.22,0.6 -0.64,0.6 z"
           id="path4403"
           style="fill:#ffffff" />
        <path
           class="st0"
           d="m 307.58,1735.29 c -0.18,0.03 -0.34,-0.02 -0.46,-0.16 -0.12,-0.14 -0.18,-0.28 -0.18,-0.44 v -4.23 c 0,-0.37 0.22,-0.58 0.64,-0.64 0.67,-0.09 1.3,-0.29 1.89,-0.6 0.58,-0.31 1.1,-0.7 1.54,-1.17 0.44,-0.47 0.79,-1.03 1.03,-1.66 0.25,-0.63 0.37,-1.3 0.37,-2 v -10.95 c 0,-1.47 0.27,-2.85 0.8,-4.14 0.54,-1.29 1.27,-2.42 2.19,-3.4 0.92,-0.98 2.01,-1.77 3.27,-2.37 1.26,-0.6 2.61,-0.94 4.05,-1.04 0.43,0 0.64,0.2 0.64,0.6 v 4.23 c 0,0.15 -0.06,0.3 -0.18,0.44 -0.12,0.14 -0.28,0.21 -0.46,0.21 -1.38,0.15 -2.53,0.74 -3.45,1.77 -0.92,1.03 -1.38,2.26 -1.38,3.7 v 10.95 c 0,1.44 -0.27,2.81 -0.81,4.09 -0.54,1.29 -1.26,2.42 -2.18,3.4 -0.92,0.98 -2.01,1.77 -3.27,2.37 -1.26,0.6 -2.61,0.94 -4.05,1.04 z"
           id="path4405"
           style="fill:#ffffff" />
        <path
           class="st0"
           d="m 274.97,1741.26 c 0.43,0.06 0.64,0.29 0.64,0.69 v 4.32 c 0,0.18 -0.06,0.33 -0.18,0.44 -0.12,0.11 -0.26,0.13 -0.41,0.07 -0.34,-0.06 -0.69,-0.11 -1.06,-0.14 -0.37,-0.03 -0.74,-0.05 -1.1,-0.05 -1.5,0 -2.91,0.28 -4.23,0.85 -1.32,0.57 -2.48,1.35 -3.47,2.35 -1,1 -1.78,2.16 -2.35,3.5 -0.57,1.33 -0.85,2.75 -0.85,4.25 0,1.5 0.28,2.92 0.85,4.26 0.57,1.33 1.35,2.49 2.35,3.47 1,0.98 2.15,1.76 3.47,2.35 1.32,0.58 2.73,0.87 4.23,0.87 0.67,0 1.39,-0.08 2.16,-0.23 0.4,-0.06 0.6,0.11 0.6,0.51 v 4.32 c 0,0.15 -0.06,0.31 -0.18,0.46 -0.12,0.15 -0.28,0.25 -0.46,0.28 -0.34,0.03 -0.68,0.06 -1.03,0.09 -0.35,0.03 -0.71,0.05 -1.08,0.05 -2.27,0 -4.4,-0.43 -6.39,-1.29 -1.99,-0.86 -3.73,-2.03 -5.2,-3.52 -1.47,-1.49 -2.64,-3.23 -3.5,-5.22 -0.86,-1.99 -1.29,-4.12 -1.29,-6.39 0,-2.27 0.43,-4.4 1.29,-6.39 0.86,-1.99 2.02,-3.73 3.5,-5.22 1.47,-1.49 3.2,-2.66 5.2,-3.52 1.99,-0.86 4.12,-1.29 6.39,-1.29 0.69,-0.01 1.39,0.03 2.1,0.13 z"
           id="path4407"
           style="fill:#ffffff" />
        <path
           class="st0"
           d="m 290.24,1740.89 c 1.5,0 2.92,0.29 4.25,0.87 1.33,0.58 2.49,1.38 3.47,2.39 0.98,1.01 1.76,2.2 2.35,3.57 0.58,1.36 0.87,2.81 0.87,4.35 0,1.53 -0.29,2.98 -0.87,4.35 -0.58,1.36 -1.36,2.55 -2.35,3.56 -0.98,1.01 -2.14,1.81 -3.47,2.39 -1.33,0.58 -2.75,0.87 -4.25,0.87 -1.5,0 -2.92,-0.29 -4.26,-0.87 -1.33,-0.58 -2.49,-1.38 -3.47,-2.39 -0.98,-1.01 -1.76,-2.2 -2.35,-3.56 -0.58,-1.36 -0.87,-2.81 -0.87,-4.35 0,-1.53 0.29,-2.98 0.87,-4.35 0.58,-1.36 1.36,-2.55 2.35,-3.57 0.98,-1.01 2.14,-1.81 3.47,-2.39 1.34,-0.58 2.76,-0.87 4.26,-0.87 z m 8.65,33.07 h -17.3 c -0.43,0 -0.64,-0.21 -0.64,-0.64 v -4.19 c 0,-0.43 0.21,-0.64 0.64,-0.64 h 17.3 c 0.43,0 0.64,0.22 0.64,0.64 v 4.19 c 0,0.43 -0.21,0.64 -0.64,0.64 z m -8.65,-16.42 c 0.77,0 1.48,-0.15 2.14,-0.44 0.66,-0.29 1.23,-0.68 1.72,-1.17 0.49,-0.49 0.88,-1.06 1.17,-1.72 0.29,-0.66 0.44,-1.37 0.44,-2.14 0,-0.77 -0.15,-1.48 -0.44,-2.14 -0.29,-0.66 -0.68,-1.23 -1.17,-1.72 -0.49,-0.49 -1.07,-0.88 -1.72,-1.17 -0.66,-0.29 -1.37,-0.44 -2.14,-0.44 -0.77,0 -1.48,0.15 -2.14,0.44 -0.66,0.29 -1.24,0.68 -1.73,1.17 -0.49,0.49 -0.88,1.07 -1.17,1.72 -0.29,0.66 -0.44,1.37 -0.44,2.14 0,0.77 0.14,1.48 0.44,2.14 0.29,0.66 0.68,1.23 1.17,1.72 0.49,0.49 1.06,0.88 1.73,1.17 0.66,0.29 1.37,0.44 2.14,0.44 z"
           id="path4409"
           style="fill:#ffffff" />
        <path
           class="st0"
           d="m 305.97,1741.16 h 4.23 c 0.37,0 0.72,0.14 1.06,0.41 l 7.77,8.09 v -7.91 c 0,-0.4 0.2,-0.6 0.6,-0.6 h 4.23 c 0.43,0 0.64,0.2 0.64,0.6 v 31.6 c 0,0.4 -0.21,0.6 -0.64,0.6 h -4.23 c -0.4,0 -0.6,-0.2 -0.6,-0.6 v -15.78 l -8.23,-8.56 v 24.33 c 0,0.4 -0.2,0.6 -0.6,0.6 h -4.23 c -0.43,0 -0.64,-0.2 -0.64,-0.6 v -31.6 c -0.01,-0.38 0.21,-0.58 0.64,-0.58 z"
           id="path4411"
           style="fill:#ffffff" />
      </g>
      <g
         id="g4453">
        <path
           class="st12"
           d="m 240.78,1775.34 h -77.73 c -0.66,0 -1.19,-0.53 -1.19,-1.19 v -77.73 c 0,-0.66 0.53,-1.19 1.19,-1.19 h 77.73 c 0.66,0 1.19,0.53 1.19,1.19 v 77.73 c 0,0.66 -0.53,1.19 -1.19,1.19 z m -76.54,-2.38 h 75.35 v -75.35 h -75.35 z"
           id="path4419"
           style="fill:#ffffff" />
        <g
           id="g4431"
           style="fill:#ffffff">
          <path
             class="st12"
             d="m 218.66,1733.03 c 0,-0.03 0,-0.07 -0.01,-0.1 -0.01,-0.04 -0.02,-0.09 -0.04,-0.13 -0.01,-0.03 -0.02,-0.06 -0.03,-0.09 -0.02,-0.05 -0.05,-0.1 -0.08,-0.15 -0.01,-0.02 -0.02,-0.04 -0.03,-0.05 v -0.01 c 0,0 0,0 0,0 l -14.79,-22.81 c -0.14,-0.5 -0.6,-0.88 -1.14,-0.88 -0.01,0 -0.03,0 -0.04,0 -0.01,0 -0.02,0 -0.03,0 0,0 0,0 0,0 -0.4,0 -0.78,0.21 -1,0.55 l -14.87,23.15 c -0.02,0.02 -0.02,0.05 -0.04,0.08 -0.02,0.04 -0.05,0.08 -0.06,0.12 -0.01,0.03 -0.02,0.06 -0.03,0.1 -0.01,0.04 -0.03,0.08 -0.04,0.13 -0.01,0.03 -0.01,0.07 -0.01,0.1 0,0.04 -0.01,0.09 -0.01,0.13 0,0.03 0.01,0.07 0.01,0.1 0,0.04 0.01,0.09 0.02,0.13 0,0.01 0,0.01 0,0.02 0.01,0.04 0.02,0.07 0.04,0.11 0.01,0.03 0.01,0.06 0.03,0.09 0,0 0,0.01 0.01,0.01 0.02,0.04 0.04,0.08 0.07,0.12 0.02,0.03 0.03,0.06 0.05,0.08 0.02,0.03 0.05,0.06 0.08,0.09 0.03,0.03 0.05,0.06 0.08,0.09 0.03,0.02 0.05,0.04 0.08,0.07 0.03,0.03 0.07,0.05 0.1,0.08 0,0 0.01,0.01 0.01,0.01 l 14.95,9.3 c 0.01,0.01 0.02,0.01 0.03,0.01 0.07,0.04 0.15,0.08 0.24,0.1 0.02,0.01 0.05,0.02 0.07,0.02 0.09,0.02 0.19,0.04 0.29,0.04 0.1,0 0.2,-0.02 0.29,-0.04 0.02,-0.01 0.05,-0.01 0.07,-0.02 0.08,-0.03 0.16,-0.06 0.24,-0.1 0.01,-0.01 0.02,-0.01 0.03,-0.01 l 14.94,-9.3 c 0,0 0.01,-0.01 0.01,-0.01 0.01,-0.01 0.03,-0.02 0.04,-0.03 0.07,-0.05 0.14,-0.11 0.2,-0.18 0.02,-0.02 0.04,-0.04 0.05,-0.06 0.06,-0.08 0.12,-0.17 0.16,-0.27 0,0 0,-0.01 0.01,-0.01 0.01,-0.03 0.02,-0.06 0.03,-0.1 0.01,-0.03 0.03,-0.07 0.03,-0.1 0,-0.01 0,-0.01 0,-0.02 0.01,-0.04 0.01,-0.08 0.02,-0.13 0,-0.04 0.01,-0.07 0.01,-0.11 -0.03,-0.03 -0.04,-0.07 -0.04,-0.12 z m -17.31,-6.88 -10.7,4.44 10.7,-16.65 z m 0,2.58 v 11.59 l -11.16,-6.95 z m 2.38,0 11.16,4.64 -11.16,6.95 z m 0,-2.58 v -12.01 l 10.67,16.45 z"
             id="path4427"
             style="fill:#ffffff" />
          <path
             class="st12"
             d="m 216.87,1738.34 -14.34,8.54 -14.34,-8.54 c -0.48,-0.29 -1.1,-0.2 -1.48,0.21 -0.38,0.41 -0.43,1.03 -0.11,1.49 l 14.95,21.42 c 0.22,0.32 0.59,0.51 0.98,0.51 0.39,0 0.75,-0.19 0.98,-0.51 l 14.94,-21.42 c 0.32,-0.46 0.28,-1.08 -0.11,-1.49 -0.37,-0.41 -0.99,-0.5 -1.47,-0.21 z m -15.52,10.61 v 8.05 l -9.62,-13.78 z m 2.38,8.05 v -8.05 l 9.62,-5.73 z"
             id="path4429"
             style="fill:#ffffff" />
        </g>
        <rect
           x="200.06"
           y="1763.95"
           transform="matrix(0.7071,-0.7071,0.7071,0.7071,-1189.7264,660.5866)"
           class="st0"
           width="4.9400001"
           height="4.9400001"
           id="rect4433"
           style="fill:#ffffff" />
        <rect
           x="200.06"
           y="1701.35"
           transform="matrix(0.7071,-0.7071,0.7071,0.7071,-1145.4618,642.2515)"
           class="st0"
           width="4.9400001"
           height="4.9400001"
           id="rect4435"
           style="fill:#ffffff" />
        <rect
           x="172.28999"
           y="1732.37"
           transform="matrix(0.7071,-0.7071,0.7071,0.7071,-1175.5348,631.6992)"
           class="st0"
           width="4.9400001"
           height="4.9400001"
           id="rect4437"
           style="fill:#ffffff" />
        <rect
           x="227.02"
           y="1732.37"
           transform="matrix(0.7071,-0.7071,0.7071,0.7071,-1159.5031,670.4033)"
           class="st0"
           width="4.9400001"
           height="4.9400001"
           id="rect4439"
           style="fill:#ffffff" />
        <g
           id="g4445"
           style="fill:#ffffff">
          <path
             class="st12"
             d="m 171.26,1727.41 c -0.15,0 -0.31,-0.03 -0.46,-0.09 -0.44,-0.18 -0.73,-0.62 -0.73,-1.1 v -22.4 c 0,-0.66 0.53,-1.19 1.19,-1.19 h 22.4 c 0.48,0 0.92,0.29 1.1,0.73 0.18,0.45 0.08,0.96 -0.26,1.3 l -22.4,22.4 c -0.22,0.23 -0.53,0.35 -0.84,0.35 z m 1.19,-22.4 v 18.34 l 18.34,-18.34 z"
             id="path4441"
             style="fill:#ffffff" />
          <path
             class="st12"
             d="m 232.99,1727.41 c -0.31,0 -0.61,-0.12 -0.84,-0.35 l -22.4,-22.4 c -0.34,-0.34 -0.44,-0.85 -0.26,-1.3 0.18,-0.44 0.62,-0.73 1.1,-0.73 h 22.4 c 0.66,0 1.19,0.53 1.19,1.19 v 22.4 c 0,0.48 -0.29,0.92 -0.73,1.1 -0.15,0.06 -0.3,0.09 -0.46,0.09 z m -19.52,-22.4 18.34,18.34 v -18.34 z"
             id="path4443"
             style="fill:#ffffff" />
        </g>
        <g
           id="g4451"
           style="fill:#ffffff">
          <path
             class="st12"
             d="m 232.99,1767.06 h -22.4 c -0.48,0 -0.92,-0.29 -1.1,-0.73 -0.18,-0.45 -0.08,-0.96 0.26,-1.3 l 22.4,-22.4 c 0.34,-0.34 0.85,-0.45 1.3,-0.26 0.44,0.18 0.73,0.62 0.73,1.1 v 22.4 c 0,0.66 -0.53,1.19 -1.19,1.19 z m -19.52,-2.38 h 18.34 v -18.34 z"
             id="path4447"
             style="fill:#ffffff" />
          <path
             class="st12"
             d="m 193.66,1767.06 h -22.4 c -0.66,0 -1.19,-0.53 -1.19,-1.19 v -22.4 c 0,-0.48 0.29,-0.92 0.73,-1.1 0.44,-0.19 0.96,-0.08 1.3,0.26 l 22.4,22.4 c 0.34,0.34 0.44,0.85 0.26,1.3 -0.18,0.44 -0.61,0.73 -1.1,0.73 z m -21.21,-2.38 h 18.34 l -18.34,-18.34 z"
             id="path4449"
             style="fill:#ffffff" />
        </g>
      </g>
    </g>
  </g>
</svg>
