<svg width="80.98mm" height="81mm" version="1.1" viewBox="0 0 80.98 81" xmlns="http://www.w3.org/2000/svg"><g transform="translate(-72.8 -70.07)"><g transform="matrix(3.388 0 0 3.388 -2156 -9671)"><polygon class="cls-2" transform="matrix(.4803 0 0 .4803 650.7 2872)" points="58.82 21.46 63.77 32.63 58.82 43.79 52.67 45.3 55.77 32.63 52.66 19.95" fill="#5a94e8"/><polygon class="cls-3" transform="matrix(.4803 0 0 .4803 650.7 2872)" points="46.07 26.57 40 16.85 52.66 19.95 55.77 32.63" fill="#4664e5"/><polygon class="cls-4" transform="matrix(.4803 0 0 .4803 650.7 2872)" points="40 48.4 46.07 38.7 55.77 32.63 52.67 45.3" fill="#a63099"/><polygon class="cls-2" transform="matrix(.4803 0 0 .4803 650.7 2872)" points="49.86 32.63 46.07 26.57 55.77 32.63 46.07 38.7" fill="#5a94e8"/><polygon class="cls-5" transform="matrix(.4803 0 0 .4803 650.7 2872)" points="52.67 45.3 51.16 51.45 40 56.4 28.83 51.45 27.32 45.29 40 48.4" fill="#e24084"/><polygon class="cls-6" transform="matrix(.4803 0 0 .4803 650.7 2872)" points="51.16 13.81 52.66 19.95 40 16.85 27.32 19.95 28.83 13.81 40 8.86" fill="#6ec7ec"/><polygon class="cls-6" transform="matrix(.4803 0 0 .4803 650.7 2872)" points="40 22.77 33.93 26.56 40 16.85 46.07 26.57" fill="#6ec7ec"/><polygon class="cls-5" transform="matrix(.4803 0 0 .4803 650.7 2872)" points="33.94 38.7 40 42.49 46.07 38.7 40 48.4" fill="#e24084"/><polygon class="cls-7" transform="matrix(.4803 0 0 .4803 650.7 2872)" points="24.22 32.63 27.32 19.95 40 16.85 33.93 26.56" fill="#413edb"/><polygon class="cls-8" transform="matrix(.4803 0 0 .4803 650.7 2872)" points="27.32 45.29 24.22 32.63 33.94 38.7 40 48.4" fill="#7f0a77"/><polygon class="cls-4" transform="matrix(.4803 0 0 .4803 650.7 2872)" points="33.93 26.56 30.14 32.63 33.94 38.7 24.22 32.63" fill="#a63099"/><polygon class="cls-4" transform="matrix(.4803 0 0 .4803 650.7 2872)" points="21.18 21.46 27.32 19.95 24.22 32.63 27.32 45.29 21.18 43.79 16.23 32.63" fill="#a63099"/><g fill="#331c9c"><path class="cls-1" d="m669.9 2876 5.361 2.402 0.7205 2.949 2.959 0.7253 2.402 5.365-2.402 5.36-2.954 0.7013-0.7253 2.954-5.361 2.378-5.365-2.378-0.7253-2.959-2.949-0.7205-2.378-5.36 2.378-5.365 2.949-0.7013 0.7253-2.949 5.365-2.402m0 16.15 2.916-1.82 1.82-2.916-1.82-2.911-2.916-1.825-2.916 1.82-1.82 2.916 1.825 2.916 2.911 1.82m0-16.68-0.1969 0.1105-5.365 2.402-0.2113 0.096-0.0576 0.2258-0.6581 2.671-2.666 0.6532-0.2306 0.058-0.0913 0.2161-2.378 5.317-0.0865 0.1922 0.0865 0.1969 2.378 5.361 0.0961 0.2161 0.2258 0.053 2.666 0.6533 0.6581 2.676 0.0576 0.2305 0.2113 0.096 5.365 2.402 0.1969 0.086 0.1969-0.086 5.361-2.402 0.2114-0.096 0.0576-0.2305 0.6581-2.671 2.671-0.6581 0.2306-0.053 0.0913-0.2161 2.402-5.361 0.0865-0.1969-0.0865-0.1922-2.402-5.365-0.0913-0.2162-0.2306-0.058-2.675-0.6533-0.6532-2.666-0.0625-0.2306-0.2114-0.096-5.356-2.354zm-2.565 9.376 2.565-1.58 2.565 1.609 1.604 2.56-1.604 2.555-2.565 1.59-2.56-1.59-1.609-2.57 1.604-2.565z" stroke-width=".4803"/><polygon class="cls-1" transform="matrix(.4803 0 0 .4803 650.7 2872)" points="28.94 13.74 51.27 51.39 51.06 51.52 28.73 13.87"/><polygon class="cls-1" transform="matrix(.4803 0 0 .4803 650.7 2872)" points="21.24 21.36 58.89 43.69 58.76 43.91 21.11 21.57"/><polygon class="cls-1" transform="matrix(.4803 0 0 .4803 650.7 2872)" points="51.06 13.74 51.27 13.87 28.94 51.52 28.73 51.39"/><polygon class="cls-1" transform="matrix(.4803 0 0 .4803 650.7 2872)" points="58.76 21.36 58.89 21.57 21.24 43.91 21.11 43.69"/><path class="cls-1" d="m669.9 2899-0.048-0.077-7.604-11.45 0.024-0.034 7.628-11.49 0.048 0.072 7.604 11.45v0.034zm-7.503-11.53 7.503 11.31 7.503-11.31-7.503-11.31z" stroke-width=".4803"/><path class="cls-1" d="m669.9 2895-0.0336-0.024-11.49-7.628 0.0769-0.048 11.45-7.599h0.0336l11.49 7.647-0.0769 0.053zm-11.31-7.652 11.31 7.508 11.31-7.508-11.31-7.508z" stroke-width=".4803"/></g></g></g></svg>
