<svg width="93" height="93" viewBox="0 0 93 93" fill="none" xmlns="http://www.w3.org/2000/svg">
<path d="M1.62 90.8601H90.86V1.62H1.62V90.8601ZM85.11 88.99L80.29 84.17L85.11 79.3501L89.93 84.17L85.11 88.99ZM85.11 3.4801L89.93 8.30005L85.11 13.12L80.29 8.30005L85.11 3.4801ZM13.76 4.13C13.76 3.68 14.12 3.32007 14.57 3.32007H78.33C78.78 3.32007 79.14 3.68 79.14 4.13V14.75H88.44C88.89 14.75 89.25 15.1101 89.25 15.5601V76.8C89.25 77.25 88.89 77.6101 88.44 77.6101H79.02V87.51C79.02 87.96 78.66 88.3201 78.21 88.3201H14.69C14.24 88.3201 13.88 87.96 13.88 87.51V77.6101H4.47C4.02 77.6101 3.66 77.25 3.66 76.8V15.5601C3.66 15.1101 4.02 14.75 4.47 14.75H13.76V4.13ZM7.78 3.4801L12.6 8.30005L7.78 13.12L2.95999 8.30005L7.78 3.4801ZM7.78 79.3601L12.6 84.1801L7.78 89L2.95999 84.1801L7.78 79.3601Z" fill="#EEE9E4"/>
<path d="M91.67 0H0.809998C0.359998 0 0 0.360059 0 0.810059V91.67C0 92.12 0.359998 92.4801 0.809998 92.4801H91.67C92.12 92.4801 92.48 92.12 92.48 91.67V0.810059C92.48 0.360059 92.12 0 91.67 0ZM90.86 90.8601H1.62V1.62H90.86V90.8601Z" fill="#025099"/>
<path d="M3.65002 15.5601V76.8C3.65002 77.25 4.01002 77.6101 4.46002 77.6101H13.87V87.51C13.87 87.96 14.23 88.3201 14.68 88.3201H78.2C78.65 88.3201 79.01 87.96 79.01 87.51V77.6101H88.4301C88.8801 77.6101 89.2401 77.25 89.2401 76.8V15.5601C89.2401 15.1101 88.8801 14.75 88.4301 14.75H79.13V4.13C79.13 3.68 78.77 3.32007 78.32 3.32007H14.57C14.12 3.32007 13.76 3.68 13.76 4.13V14.75H4.47003C4.01003 14.75 3.65002 15.1201 3.65002 15.5601ZM5.27002 16.37H14.56C15.01 16.37 15.37 16.0101 15.37 15.5601V4.94006H77.51V15.5601C77.51 16.0101 77.87 16.37 78.32 16.37H87.6201V75.9801H78.2C77.75 75.9801 77.39 76.34 77.39 76.79V86.6901H15.49V76.79C15.49 76.34 15.13 75.9801 14.68 75.9801H5.27002V16.37V16.37Z" fill="#025099"/>
<path d="M7.77238 79.352L2.95703 84.1674L7.77242 88.9828L12.5878 84.1674L7.77238 79.352Z" fill="#025099"/>
<path d="M7.77006 3.47359L2.95471 8.28894L7.7701 13.1043L12.5855 8.28898L7.77006 3.47359Z" fill="#025099"/>
<path d="M85.0942 79.3584L80.2788 84.1737L85.0942 88.9891L89.9095 84.1737L85.0942 79.3584Z" fill="#025099"/>
<path d="M85.0921 3.47994L80.2767 8.29529L85.0921 13.1107L89.9075 8.29533L85.0921 3.47994Z" fill="#025099"/>
</svg>
