<svg width="51" height="53" viewBox="0 0 51 53" fill="none" xmlns="http://www.w3.org/2000/svg">
<path d="M49.5399 36.73L48.83 36.97C48.83 36.97 48.6 35.01 48.45 34.53C48.29 34.06 47.6599 33.51 47.6599 33.51C47.6599 33.51 48.6799 33.13 48.7599 32.65C48.8299 32.18 48.45 31.4 48.2 31.16C47.97 30.92 47.2599 32.34 47.2599 32.34C47.2599 32.34 47.2999 31.12 47.1099 30.77C46.9099 30.41 46.7599 30.29 46.7599 30.29C46.7599 30.29 47.1399 30.29 47.1899 30.02C47.2299 29.75 47.35 28.84 46.96 28.72C46.56 28.61 46.0499 28.64 45.9799 29.11C45.8999 29.58 45.6199 30.05 45.7499 30.25C45.8599 30.45 45.5899 30.8801 45.5499 31.4301C45.5099 31.9901 45.5499 33.2001 45.3499 33.4301C45.1599 33.6701 44.9199 33.51 44.5599 33.79C44.2099 34.07 43.78 34.58 43.78 34.58C43.78 34.58 43.46 33.68 43.14 33.52C42.83 33.36 42.6699 33.33 42.6699 33.33C42.6699 33.33 42.9899 32.35 42.6299 32.15C42.2799 31.95 41.9299 31.95 41.8099 32.39C41.6899 32.82 41.8499 33.33 41.8099 33.45C41.7699 33.57 41.2999 33.88 41.2999 33.88L41.0999 33.26C41.0999 33.26 41.6499 32.7899 41.3799 32.4399C41.0999 32.0799 40.8299 31.96 40.6799 32.04C40.5199 32.12 40.28 32.47 40.28 32.75C40.28 33.03 40.28 33.26 40.28 33.26H39.9699C39.9699 33.26 40.4799 26.7 39.3099 22.74C38.1299 18.77 34.4 16.5 34.4 16.5V1.22998H14.58V17.79H13.4799V21.33L14.1099 21.4399V36.52L7.15991 48.76H1.18994V52.0601H42.1699L50.0999 38.4L49.5399 36.73ZM32.15 14.9301C32.84 15.1201 33.37 15.34 33.7 15.48V16.24C33.03 15.93 31.7099 15.24 30.7399 14.9C29.5299 14.47 28.5099 14.3101 28.5099 14.3101C28.5099 14.3101 30.42 14.4801 32.15 14.9301ZM11.7499 48.5601H10.5999L16.52 35.79H17.0999L11.7499 48.5601ZM14.9999 34.8V21.59L15.3699 21.71C15.3699 21.71 17.9799 23.07 17.9299 26.47C17.8899 29.21 15.7999 33.32 14.9999 34.8ZM30.7 36.83C30.7 36.83 30.83 29.7899 28.58 25.1899C25.82 19.5499 17.9799 17.9399 17.9799 17.9399C23.1199 17.6799 28.7199 21.03 30.1799 25.48C31.6299 29.92 30.7 36.83 30.7 36.83ZM35.46 34.64C35.46 34.64 35.54 28.93 33.39 23.74C30.44 16.62 19.5999 15.6899 19.5999 15.6899C26.6099 15.4199 32.0099 18.26 34.2499 22.39C36.4999 26.52 35.46 34.64 35.46 34.64Z" fill="#EFE9E4"/>
<path d="M42.45 52.54H0.679932V48.24H6.85992L13.5999 36.37V21.84L12.9699 21.72V17.27H14.0699V0.709961H34.89V16.21C35.76 16.8 38.72 19.02 39.78 22.58C40.6 25.36 40.6199 29.29 40.5499 31.54C40.7999 31.46 41.15 31.51 41.52 31.85C41.63 31.71 41.7599 31.63 41.8699 31.59C42.0799 31.5 42.4199 31.46 42.8699 31.71C43.3399 31.96 43.3399 32.55 43.2599 33.02C43.2899 33.03 43.3199 33.0499 43.3599 33.0699C43.5799 33.1799 43.7699 33.4299 43.9199 33.6899C44.0199 33.5899 44.1399 33.49 44.2399 33.4C44.5199 33.18 44.7699 33.13 44.9199 33.1C44.9899 33 45.01 32.35 45.02 32C45.03 31.77 45.0299 31.55 45.0399 31.39C45.0599 31.08 45.14 30.82 45.2 30.61C45.22 30.55 45.2399 30.47 45.2499 30.41C45.1299 30.13 45.23 29.81 45.34 29.49C45.39 29.35 45.4399 29.19 45.4699 29.03C45.5199 28.73 45.6699 28.49 45.9099 28.34C46.2099 28.15 46.64 28.11 47.08 28.24C47.63 28.41 47.8299 29.03 47.6699 30.09C47.6499 30.24 47.5899 30.36 47.4999 30.46C47.5099 30.48 47.52 30.5 47.53 30.52C47.58 30.6 47.61 30.71 47.64 30.83C47.83 30.66 47.95 30.64 48.03 30.63L48.2899 30.59L48.5499 30.8C48.8799 31.13 49.3399 32.06 49.2399 32.71C49.1699 33.12 48.8199 33.43 48.4699 33.65C48.6399 33.86 48.82 34.11 48.9 34.36C49.01 34.71 49.1499 35.65 49.2299 36.29L49.83 36.09L50.6199 38.4301L42.45 52.54ZM1.67993 51.54H41.8799L49.5499 38.33L49.2299 37.37L48.4099 37.65L48.34 37.04C48.25 36.3 48.0799 35.0099 47.9799 34.6899C47.8999 34.4699 47.56 34.09 47.34 33.89L47.15 33.72L46.6899 34.63L46.7399 33.35L46.7299 33.34L46.7399 33.33L46.78 32.3199C46.8 31.7699 46.7599 31.16 46.6899 31.01C46.5499 30.76 46.45 30.67 46.45 30.67L46.27 30.5C46.25 30.63 46.2099 30.76 46.1799 30.89C46.1299 31.07 46.0699 31.26 46.0599 31.45C46.0499 31.6 46.0399 31.8 46.0399 32.01C46.0199 32.98 45.9799 33.47 45.7499 33.74C45.5499 33.99 45.2899 34.0399 45.1299 34.0699C45.0199 34.0899 44.97 34.1 44.89 34.17C44.58 34.42 44.1799 34.88 44.1799 34.89L43.6199 35.54L43.33 34.73C43.21 34.39 43.0099 34.0101 42.9199 33.9301C42.7099 33.8201 42.58 33.79 42.58 33.79L42.2599 33.7C42.1899 33.82 42.0299 33.99 41.5999 34.27L41.0499 34.63L40.7599 33.73H39.45L39.4899 33.1899C39.4899 33.1299 39.98 26.68 38.84 22.85C37.82 19.42 34.7499 17.2799 34.2299 16.9399V17.01L33.52 16.6801C33.33 16.5901 33.09 16.48 32.83 16.35C32.14 16.01 31.2799 15.59 30.5999 15.36C29.4499 14.95 28.46 14.79 28.45 14.79L28.5699 13.8C28.6499 13.81 30.5499 13.9699 32.2999 14.4399H32.3099C33.0699 14.6499 33.6299 14.88 33.9099 15.01V1.68994H15.09V17.5699L17.9799 17.42C23.4699 17.12 29.1599 20.68 30.6799 25.3C32.1599 29.81 31.2699 36.59 31.2299 36.88L30.2299 36.8C30.2299 36.73 30.3299 29.83 28.1599 25.39C25.5499 20.04 17.9799 18.42 17.9099 18.41L15.0999 17.83V18.26H13.9999V20.88L14.53 20.98V20.89L15.5499 21.22C15.7399 21.31 18.51 22.8 18.46 26.46C18.42 29.28 16.3599 33.39 15.4699 35.02L14.5599 36.73L7.46991 49.22H1.70996V51.54H1.67993ZM48.09 31.89C47.97 32.08 47.83 32.3301 47.71 32.5601L47.4699 33.05L47.4899 33.04C47.8399 32.91 48.23 32.66 48.28 32.54C48.29 32.4 48.2 32.13 48.09 31.89ZM42.28 32.53C42.26 32.65 42.2499 32.76 42.2599 32.87C42.2899 32.73 42.3 32.61 42.28 32.53C42.29 32.53 42.29 32.53 42.28 32.53ZM40.83 32.5699C40.8 32.6299 40.77 32.69 40.77 32.73V32.86C40.83 32.81 40.8999 32.73 40.9299 32.67C40.8899 32.63 40.86 32.5999 40.83 32.5699ZM40.9699 32.73C40.9699 32.73 40.9799 32.73 40.9699 32.73C40.9799 32.73 40.9699 32.73 40.9699 32.73ZM15.4999 22.39V32.7C16.3599 30.88 17.3999 28.3 17.4299 26.46C17.4599 24.14 16.1599 22.87 15.4999 22.39ZM42.3699 32.5699C42.3699 32.5699 42.3799 32.5799 42.3699 32.5699C42.3799 32.5799 42.3699 32.5699 42.3699 32.5699ZM47.8599 31.51C47.8599 31.52 47.8599 31.52 47.8599 31.51C47.8599 31.52 47.8599 31.52 47.8599 31.51ZM46.58 29.16C46.51 29.16 46.46 29.1701 46.45 29.1801C46.42 29.4001 46.3599 29.6 46.2899 29.79H46.7C46.73 29.49 46.72 29.2801 46.7 29.1801C46.66 29.1701 46.62 29.16 46.58 29.16ZM23.2599 19.39C25.4299 20.55 27.74 22.33 29.03 24.97C29.6 26.13 30.02 27.43 30.33 28.73C30.21 27.64 30.01 26.57 29.7 25.63C28.82 22.95 26.2899 20.63 23.2599 19.39ZM12.09 49.0601H9.81995L16.21 35.29H17.8599L12.09 49.0601ZM11.39 48.0601H11.4299L11.77 47.25L11.39 48.0601ZM35.96 34.7L34.96 34.63C34.96 34.57 35.0199 28.9601 32.9299 23.9301C30.1299 17.1701 19.6599 16.1901 19.5599 16.1801L19.58 15.1801C26.42 14.9401 32.2199 17.59 34.6899 22.14C36.9899 26.37 36 34.36 35.96 34.7ZM27.8699 17.55C30.3299 18.8 32.6799 20.69 33.8599 23.55C34.3699 24.78 34.7499 26.03 35.0499 27.22C34.8699 25.54 34.4999 23.88 33.8199 22.62C32.6099 20.4 30.5199 18.66 27.8699 17.55Z" fill="#B8ACA7"/>
</svg>
