<svg width="274" height="273" viewBox="0 0 274 273" fill="none" xmlns="http://www.w3.org/2000/svg">
<path d="M117 271.5C65.6003 264.2 23.3003 228.7 7.10031 179.3C-19.1997 99.4 32.0003 15.1 114.9 1.40001C128.7 -0.799989 153.5 -0.199989 166.6 2.80001C217.2 14.5 256.6 52.6 269.5 102.4C286.1 166.7 252.5 234.9 190.9 261.6C168.2 271.4 141.4 275 117 271.5ZM166.1 251.7C179 248.3 189.2 243.9 200.1 237.1C248.1 206.9 268.3 146 247.5 94C240.5 76.6 232.4 64.5 218.9 51.5C202 35.2 182.3 24.9 158.5 19.9C148.6 17.7 121.3 18.3 110.9 20.8C75.5003 29.4 47.4003 51.4 31.5003 83C22.9003 100.2 19.0003 116.8 19.0003 136.6C19.0003 193.8 59.6003 242.7 116.2 253.5C128.1 255.8 154.1 254.9 166.1 251.7Z" fill="#8B5D9D"/>
<path d="M113.5 217.6C101 215.4 93.5004 212.2 86.8004 206.2C78.1004 198.4 77.5004 187.3 85.3004 179.2C90.7004 173.5 91.2004 173.5 98.7004 178C102.4 180.2 107.7 182.9 110.6 184C122.6 188.5 138.7 189.1 147.9 185.4C153.6 183.2 158 177.2 158 171.8C158 162.8 152.1 158.1 134.1 152.4C119.1 147.7 103.6 141.4 98.5004 138C89.4004 131.8 83.2004 122.9 81.1004 113.2C75.7004 87.8 89.6004 66.9 116.5 59.4C124.5 57.2 147.1 56.4 158.4 57.9C183.4 61.3 195.9 73.7 189.1 88.5C188.1 90.7 186.1 93.6 184.6 95C182.1 97.2 181.7 97.3 178.7 96.1C164.9 90.3 158.6 88.9 146.5 88.8C137.3 88.7 133.5 89.1 130.2 90.5C124.4 92.9 121 97.1 121 102.1C121 110 123.3 111.6 144.5 119C163.5 125.6 173.9 130.5 181.7 136.4C195.3 146.7 201.4 163.3 197.9 180.2C192.6 205.2 168.9 219.3 132.5 218.9C125.9 218.8 117.4 218.2 113.5 217.6Z" fill="#8B5D9D"/>
</svg>
