<svg width="288" height="248" viewBox="0 0 288 248" fill="none" xmlns="http://www.w3.org/2000/svg">
<g clip-path="url(#clip0)">
<path d="M229.92 173.064C229.92 171.357 230.197 169.864 230.752 168.584C231.307 167.261 231.968 166.152 232.736 165.256C233.504 164.36 234.528 163.336 235.808 162.184C237.259 160.861 238.325 159.731 239.008 158.792C239.733 157.811 240.096 156.659 240.096 155.336C240.096 153.587 239.691 152.285 238.88 151.432C238.069 150.579 236.811 150.152 235.104 150.152C233.269 150.152 231.947 150.707 231.136 151.816C230.368 152.883 229.899 154.419 229.728 156.424L221.472 154.568C221.557 152.477 222.155 150.6 223.264 148.936C224.416 147.272 226.037 145.971 228.128 145.032C230.219 144.093 232.672 143.624 235.488 143.624C239.669 143.624 243.04 144.648 245.6 146.696C248.203 148.744 249.504 151.56 249.504 155.144C249.504 157.107 249.205 158.749 248.608 160.072C248.053 161.395 247.349 162.461 246.496 163.272C245.685 164.04 244.597 164.915 243.232 165.896C242.037 166.749 241.099 167.496 240.416 168.136C239.733 168.733 239.157 169.523 238.688 170.504C238.219 171.443 237.984 172.595 237.984 173.96V174.984H229.92V173.064ZM233.632 189.384C230.304 189.384 228.64 187.72 228.64 184.392V183.432C228.64 180.104 230.304 178.44 233.632 178.44H234.528C237.856 178.44 239.52 180.104 239.52 183.432V184.392C239.52 187.72 237.856 189.384 234.528 189.384H233.632Z" fill="black"/>
<path d="M272.7 207.78H199.03C198.67 207.78 198.37 207.49 198.37 207.12V133.45C198.37 133.09 198.66 132.79 199.03 132.79H272.7C273.06 132.79 273.36 133.08 273.36 133.45V207.12C273.36 207.49 273.07 207.78 272.7 207.78ZM199.69 206.47H272.04V134.12H199.69V206.47Z" fill="#F4BD03"/>
<path d="M206.5 133.27L198.92 140.85V133.27H206.5Z" fill="#F4BD03"/>
<path d="M198.43 142.04V132.78H207.69L198.43 142.04ZM199.42 133.76V139.65L205.31 133.76H199.42Z" fill="#F4BD03"/>
<path d="M198.92 199.06L206.5 206.64H198.92V199.06Z" fill="#F4BD03"/>
<path d="M207.69 207.13H198.43V197.87L207.69 207.13ZM199.42 206.14H205.31L199.42 200.25V206.14Z" fill="#F4BD03"/>
<path d="M265.24 133.27L272.81 140.85V133.27H265.24Z" fill="#F4BD03"/>
<path d="M273.31 142.04L264.05 132.78H273.31V142.04ZM266.43 133.76L272.32 139.65V133.76H266.43Z" fill="#F4BD03"/>
<path d="M272.81 199.06L265.24 206.64H272.81V199.06Z" fill="#F4BD03"/>
<path d="M273.31 207.13H264.05L273.31 197.87V207.13ZM266.43 206.14H272.32V200.25L266.43 206.14Z" fill="#F4BD03"/>
<path d="M85.92 218.064C85.92 216.357 86.1973 214.864 86.752 213.584C87.3067 212.261 87.968 211.152 88.736 210.256C89.504 209.36 90.528 208.336 91.808 207.184C93.2587 205.861 94.3253 204.731 95.008 203.792C95.7333 202.811 96.096 201.659 96.096 200.336C96.096 198.587 95.6907 197.285 94.88 196.432C94.0693 195.579 92.8107 195.152 91.104 195.152C89.2693 195.152 87.9467 195.707 87.136 196.816C86.368 197.883 85.8987 199.419 85.728 201.424L77.472 199.568C77.5573 197.477 78.1547 195.6 79.264 193.936C80.416 192.272 82.0373 190.971 84.128 190.032C86.2187 189.093 88.672 188.624 91.488 188.624C95.6693 188.624 99.04 189.648 101.6 191.696C104.203 193.744 105.504 196.56 105.504 200.144C105.504 202.107 105.205 203.749 104.608 205.072C104.053 206.395 103.349 207.461 102.496 208.272C101.685 209.04 100.597 209.915 99.232 210.896C98.0373 211.749 97.0987 212.496 96.416 213.136C95.7333 213.733 95.1573 214.523 94.688 215.504C94.2187 216.443 93.984 217.595 93.984 218.96V219.984H85.92V218.064ZM89.632 234.384C86.304 234.384 84.64 232.72 84.64 229.392V228.432C84.64 225.104 86.304 223.44 89.632 223.44H90.528C93.856 223.44 95.52 225.104 95.52 228.432V229.392C95.52 232.72 93.856 234.384 90.528 234.384H89.632Z" fill="black"/>
<path d="M57.29 245.85H126.7V176.44H57.29V245.85ZM66.73 178.4C66.73 178.05 67.01 177.77 67.36 177.77H116.96C117.31 177.77 117.59 178.05 117.59 178.4V186.66H124.82C125.17 186.66 125.45 186.94 125.45 187.29V234.92C125.45 235.27 125.17 235.55 124.82 235.55V243.25H117.5C117.5 243.6 117.22 243.88 116.87 243.88H67.4601C67.1101 243.88 66.83 243.6 66.83 243.25V235.55H59.51C59.16 235.55 58.88 235.27 58.88 234.92V187.29C58.88 186.94 59.16 186.66 59.51 186.66V178.4H66.73Z" fill="#025099"/>
<path d="M127.33 175.18H56.66C56.31 175.18 56.03 175.46 56.03 175.81V246.48C56.03 246.83 56.31 247.11 56.66 247.11H127.33C127.68 247.11 127.96 246.83 127.96 246.48V175.81C127.96 175.46 127.68 175.18 127.33 175.18ZM126.7 245.85H57.29V176.44H126.7V245.85Z" fill="#025099"/>
<path d="M126.95 246.1H57.04V176.19H126.95V246.1ZM57.54 245.6H126.45V176.69H57.54V245.6ZM116.86 244.13H67.45C66.96 244.13 66.57 243.73 66.57 243.25V235.8H59.5001C59.0101 235.8 58.6201 235.4 58.6201 234.92V187.29C58.6201 186.89 58.8901 186.55 59.2501 186.45V178.16H66.5201C66.6301 177.8 66.97 177.53 67.36 177.53H116.96C117.45 177.53 117.84 177.93 117.84 178.41V186.42H124.82C125.31 186.42 125.7 186.82 125.7 187.3V234.93C125.7 235.33 125.43 235.67 125.07 235.77V243.5H117.71C117.6 243.86 117.26 244.13 116.86 244.13ZM59.5001 186.91C59.2901 186.91 59.1201 187.08 59.1201 187.29V234.92C59.1201 235.13 59.2901 235.3 59.5001 235.3H67.07V243.25C67.07 243.46 67.24 243.63 67.45 243.63H116.86C117.07 243.63 117.24 243.46 117.24 243.25V243H124.56V235.3H124.81C125.02 235.3 125.19 235.13 125.19 234.92V187.29C125.19 187.08 125.02 186.91 124.81 186.91H117.33V178.4C117.33 178.19 117.16 178.02 116.95 178.02H67.35C67.14 178.02 66.9701 178.19 66.9701 178.4V178.65H59.7401V186.91H59.5001Z" fill="#D1CCC9"/>
<path d="M127.33 247.36H56.66C56.17 247.36 55.78 246.96 55.78 246.48V175.81C55.78 175.32 56.18 174.93 56.66 174.93H127.33C127.82 174.93 128.21 175.33 128.21 175.81V246.48C128.21 246.97 127.82 247.36 127.33 247.36ZM56.66 175.43C56.45 175.43 56.28 175.6 56.28 175.81V246.48C56.28 246.69 56.45 246.86 56.66 246.86H127.33C127.54 246.86 127.71 246.69 127.71 246.48V175.81C127.71 175.6 127.54 175.43 127.33 175.43H56.66ZM126.95 246.1H57.04V176.19H126.95V246.1ZM57.54 245.6H126.45V176.69H57.54V245.6Z" fill="#D1CCC9"/>
<path d="M116.86 244.13H67.45C66.96 244.13 66.57 243.73 66.57 243.25V235.8H59.5C59.01 235.8 58.62 235.4 58.62 234.92V187.29C58.62 186.89 58.89 186.55 59.25 186.45V178.16H66.52C66.63 177.8 66.97 177.53 67.36 177.53H116.96C117.45 177.53 117.84 177.93 117.84 178.41V186.42H124.82C125.31 186.42 125.7 186.82 125.7 187.3V234.93C125.7 235.33 125.43 235.67 125.07 235.77V243.5H117.71C117.6 243.86 117.26 244.13 116.86 244.13ZM59.5 186.91C59.29 186.91 59.12 187.08 59.12 187.29V234.92C59.12 235.13 59.29 235.3 59.5 235.3H67.07V243.25C67.07 243.46 67.24 243.63 67.45 243.63H116.86C117.07 243.63 117.24 243.46 117.24 243.25V243H124.56V235.3H124.81C125.02 235.3 125.19 235.13 125.19 234.92V187.29C125.19 187.08 125.02 186.91 124.81 186.91H117.33V178.4C117.33 178.19 117.16 178.02 116.95 178.02H67.35C67.14 178.02 66.97 178.19 66.97 178.4V178.65H59.74V186.91H59.5ZM123.8 242.87H67.83V234.92C67.83 234.71 67.66 234.54 67.45 234.54H59.88V179.41H60.13C60.34 179.41 60.51 179.24 60.51 179.03V178.78H116.57V187.29C116.57 187.5 116.74 187.67 116.95 187.67H124.43V242.24H124.18C123.97 242.24 123.8 242.41 123.8 242.62V242.87ZM68.33 242.37H123.34C123.42 242.08 123.65 241.86 123.93 241.78V188.18H116.95C116.46 188.18 116.07 187.78 116.07 187.3V179.29H60.97C60.89 179.58 60.66 179.8 60.38 179.88V234.04H67.45C67.94 234.04 68.33 234.44 68.33 234.92V242.37Z" fill="#D1CCC9"/>
<path d="M142.92 105.064C142.92 103.357 143.197 101.864 143.752 100.584C144.307 99.2613 144.968 98.152 145.736 97.256C146.504 96.36 147.528 95.336 148.808 94.184C150.259 92.8613 151.325 91.7307 152.008 90.792C152.733 89.8107 153.096 88.6587 153.096 87.336C153.096 85.5867 152.691 84.2853 151.88 83.432C151.069 82.5787 149.811 82.152 148.104 82.152C146.269 82.152 144.947 82.7067 144.136 83.816C143.368 84.8827 142.899 86.4187 142.728 88.424L134.472 86.568C134.557 84.4773 135.155 82.6 136.264 80.936C137.416 79.272 139.037 77.9707 141.128 77.032C143.219 76.0933 145.672 75.624 148.488 75.624C152.669 75.624 156.04 76.648 158.6 78.696C161.203 80.744 162.504 83.56 162.504 87.144C162.504 89.1067 162.205 90.7493 161.608 92.072C161.053 93.3947 160.349 94.4613 159.496 95.272C158.685 96.04 157.597 96.9147 156.232 97.896C155.037 98.7493 154.099 99.496 153.416 100.136C152.733 100.733 152.157 101.523 151.688 102.504C151.219 103.443 150.984 104.595 150.984 105.96V106.984H142.92V105.064ZM146.632 121.384C143.304 121.384 141.64 119.72 141.64 116.392V115.432C141.64 112.104 143.304 110.44 146.632 110.44H147.528C150.856 110.44 152.52 112.104 152.52 115.432V116.392C152.52 119.72 150.856 121.384 147.528 121.384H146.632Z" fill="black"/>
<path d="M85.9399 149.79L99.3699 163.22C99.3699 163.18 99.3499 163.15 99.3499 163.11V149.8H85.9399V149.79Z" fill="#EEE9E4"/>
<path d="M199.19 35.37V49.7201H213.54L199.19 35.37Z" fill="#EEE9E4"/>
<path d="M99.1599 49.7201V35.39L84.83 49.7201H99.1599Z" fill="#EEE9E4"/>
<path d="M199.01 163.1C199.01 163.15 198.99 163.19 198.98 163.24L212.43 149.79H199.01V163.1Z" fill="#EEE9E4"/>
<path d="M214.4 34.4501H198.79C198.59 34.2701 198.33 34.16 198.05 34.16H100.31C100.02 34.16 99.7699 34.2801 99.5699 34.4501H83.9799V50.1001C83.7899 50.3001 83.6699 50.57 83.6699 50.87V148.65C83.6699 148.95 83.7899 149.21 83.9799 149.42V163.97H99.7499C99.9499 164.15 100.21 164.26 100.49 164.26H197.86C198.15 164.26 198.4 164.14 198.6 163.97H214.39V149.39C214.56 149.19 214.68 148.94 214.68 148.65V50.87C214.68 50.58 214.57 50.33 214.39 50.13V34.4501H214.4ZM199.19 49.7201V35.37L213.54 49.7201H199.19ZM99.3699 163.22L85.9399 149.79H99.3399V163.1C99.3499 163.14 99.3599 163.18 99.3699 163.22ZM99.1599 35.39V49.7201H84.8299L99.1599 35.39ZM196.72 148.64V161.95H156.29L149.43 155.09L143.13 161.95H101.64V148.64C101.64 148.01 101.13 147.49 100.49 147.49H85.9599V105.91L93.0299 98.8401L85.9599 92.3501V52H100.31C100.94 52 101.46 51.4901 101.46 50.8501V36.4301H142.67L149.53 43.29L155.83 36.4301H196.91V50.8501C196.91 51.4801 197.42 52 198.06 52H212.41V91.5801L204.7 99.29L212.41 106.36V147.49H197.88C197.23 147.5 196.72 148.01 196.72 148.64ZM212.43 149.79L198.98 163.24C198.99 163.19 199.01 163.15 199.01 163.1V149.79H212.43Z" fill="#025099"/>
<path d="M237.92 51.064C237.92 49.3573 238.197 47.864 238.752 46.584C239.307 45.2613 239.968 44.152 240.736 43.256C241.504 42.36 242.528 41.336 243.808 40.184C245.259 38.8613 246.325 37.7307 247.008 36.792C247.733 35.8107 248.096 34.6587 248.096 33.336C248.096 31.5867 247.691 30.2853 246.88 29.432C246.069 28.5787 244.811 28.152 243.104 28.152C241.269 28.152 239.947 28.7067 239.136 29.816C238.368 30.8827 237.899 32.4187 237.728 34.424L229.472 32.568C229.557 30.4773 230.155 28.6 231.264 26.936C232.416 25.272 234.037 23.9707 236.128 23.032C238.219 22.0933 240.672 21.624 243.488 21.624C247.669 21.624 251.04 22.648 253.6 24.696C256.203 26.744 257.504 29.56 257.504 33.144C257.504 35.1067 257.205 36.7493 256.608 38.072C256.053 39.3947 255.349 40.4613 254.496 41.272C253.685 42.04 252.597 42.9147 251.232 43.896C250.037 44.7493 249.099 45.496 248.416 46.136C247.733 46.7333 247.157 47.5227 246.688 48.504C246.219 49.4427 245.984 50.5947 245.984 51.96V52.984H237.92V51.064ZM241.632 67.384C238.304 67.384 236.64 65.72 236.64 62.392V61.432C236.64 58.104 238.304 56.44 241.632 56.44H242.528C245.856 56.44 247.52 58.104 247.52 61.432V62.392C247.52 65.72 245.856 67.384 242.528 67.384H241.632Z" fill="black"/>
<path d="M196.45 90.8601H285.69V1.62H196.45V90.8601ZM279.94 88.99L275.12 84.17L279.94 79.3501L284.76 84.17L279.94 88.99ZM279.94 3.4801L284.76 8.30005L279.94 13.12L275.12 8.30005L279.94 3.4801ZM208.59 4.13C208.59 3.68 208.95 3.32007 209.4 3.32007H273.16C273.61 3.32007 273.97 3.68 273.97 4.13V14.75H283.27C283.72 14.75 284.08 15.1101 284.08 15.5601V76.8C284.08 77.25 283.72 77.6101 283.27 77.6101H273.85V87.51C273.85 87.96 273.49 88.3201 273.04 88.3201H209.52C209.07 88.3201 208.71 87.96 208.71 87.51V77.6101H199.3C198.85 77.6101 198.49 77.25 198.49 76.8V15.5601C198.49 15.1101 198.85 14.75 199.3 14.75H208.59V4.13ZM202.61 3.4801L207.43 8.30005L202.61 13.12L197.79 8.30005L202.61 3.4801ZM202.61 79.3601L207.43 84.1801L202.61 89L197.79 84.1801L202.61 79.3601Z" fill="#EEE9E4"/>
<path d="M286.5 0H195.64C195.19 0 194.83 0.360059 194.83 0.810059V91.67C194.83 92.12 195.19 92.4801 195.64 92.4801H286.5C286.95 92.4801 287.31 92.12 287.31 91.67V0.810059C287.31 0.360059 286.95 0 286.5 0ZM285.69 90.8601H196.45V1.62H285.69V90.8601Z" fill="#025099"/>
<path d="M198.48 15.5601V76.8C198.48 77.25 198.84 77.6101 199.29 77.6101H208.7V87.51C208.7 87.96 209.06 88.3201 209.51 88.3201H273.03C273.48 88.3201 273.84 87.96 273.84 87.51V77.6101H283.26C283.71 77.6101 284.07 77.25 284.07 76.8V15.5601C284.07 15.1101 283.71 14.75 283.26 14.75H273.96V4.13C273.96 3.68 273.6 3.32007 273.15 3.32007H209.4C208.95 3.32007 208.59 3.68 208.59 4.13V14.75H199.3C198.84 14.75 198.48 15.1201 198.48 15.5601ZM200.1 16.37H209.39C209.84 16.37 210.2 16.0101 210.2 15.5601V4.94006H272.34V15.5601C272.34 16.0101 272.7 16.37 273.15 16.37H282.45V75.9801H273.03C272.58 75.9801 272.22 76.34 272.22 76.79V86.6901H210.32V76.79C210.32 76.34 209.96 75.9801 209.51 75.9801H200.1V16.37Z" fill="#025099"/>
<path d="M202.602 79.352L197.787 84.1674L202.602 88.9828L207.418 84.1674L202.602 79.352Z" fill="#025099"/>
<path d="M202.6 3.4736L197.785 8.28895L202.6 13.1043L207.415 8.28899L202.6 3.4736Z" fill="#025099"/>
<path d="M279.924 79.3584L275.109 84.1737L279.924 88.9891L284.74 84.1737L279.924 79.3584Z" fill="#025099"/>
<path d="M279.922 3.47995L275.107 8.2953L279.922 13.1107L284.737 8.29534L279.922 3.47995Z" fill="#025099"/>
<path d="M39.16 111.072C39.16 109.152 39.472 107.472 40.096 106.032C40.72 104.544 41.464 103.296 42.328 102.288C43.192 101.28 44.344 100.128 45.784 98.832C47.416 97.344 48.616 96.072 49.384 95.016C50.2 93.912 50.608 92.616 50.608 91.128C50.608 89.16 50.152 87.696 49.24 86.736C48.328 85.776 46.912 85.296 44.992 85.296C42.928 85.296 41.44 85.92 40.528 87.168C39.664 88.368 39.136 90.096 38.944 92.352L29.656 90.264C29.752 87.912 30.424 85.8 31.672 83.928C32.968 82.056 34.792 80.592 37.144 79.536C39.496 78.48 42.256 77.952 45.424 77.952C50.128 77.952 53.92 79.104 56.8 81.408C59.728 83.712 61.192 86.88 61.192 90.912C61.192 93.12 60.856 94.968 60.184 96.456C59.56 97.944 58.768 99.144 57.808 100.056C56.896 100.92 55.672 101.904 54.136 103.008C52.792 103.968 51.736 104.808 50.968 105.528C50.2 106.2 49.552 107.088 49.024 108.192C48.496 109.248 48.232 110.544 48.232 112.08V113.232H39.16V111.072ZM43.336 129.432C39.592 129.432 37.72 127.56 37.72 123.816V122.736C37.72 118.992 39.592 117.12 43.336 117.12H44.344C48.088 117.12 49.96 118.992 49.96 122.736V123.816C49.96 127.56 48.088 129.432 44.344 129.432H43.336Z" fill="black"/>
<path d="M91.67 149.79H0.809998C0.359998 149.79 0 149.43 0 148.98V58.12C0 57.67 0.359998 57.3101 0.809998 57.3101H91.67C92.12 57.3101 92.48 57.67 92.48 58.12V148.98C92.48 149.43 92.11 149.79 91.67 149.79ZM1.62 148.17H90.86V58.9301H1.62V148.17Z" fill="#F4BD03"/>
<path d="M10.02 57.89L0.669983 67.24V57.89H10.02Z" fill="#F4BD03"/>
<path d="M0.0599976 68.7001V57.28H11.48L0.0599976 68.7001ZM1.28 58.5V65.77L8.54999 58.5H1.28Z" fill="#F4BD03"/>
<path d="M0.669983 139.03L10.02 148.38H0.669983V139.03Z" fill="#F4BD03"/>
<path d="M11.48 148.98H0.0599976V137.56L11.48 148.98ZM1.28 147.77H8.54999L1.28 140.5V147.77Z" fill="#F4BD03"/>
<path d="M82.46 57.89L91.8 67.24V57.89H82.46Z" fill="#F4BD03"/>
<path d="M92.41 68.7001L80.99 57.28H92.41V68.7001ZM83.93 58.5L91.2 65.77V58.5H83.93Z" fill="#F4BD03"/>
<path d="M91.8 139.03L82.46 148.38H91.8V139.03Z" fill="#F4BD03"/>
<path d="M92.41 148.98H80.99L92.41 137.56V148.98ZM83.93 147.77H91.2V140.5L83.93 147.77Z" fill="#F4BD03"/>
</g>
<defs>
<clipPath id="clip0">
<rect width="288" height="248" fill="white"/>
</clipPath>
</defs>
</svg>
