<svg width="73" height="74" viewBox="0 0 73 74" fill="none" xmlns="http://www.w3.org/2000/svg">
<path d="M1.98999 71.55H71.4V2.14001H1.98999V71.55ZM11.43 4.09998C11.43 3.74998 11.71 3.46997 12.06 3.46997H61.66C62.01 3.46997 62.29 3.74998 62.29 4.09998V12.36H69.52C69.87 12.36 70.15 12.64 70.15 12.99V60.62C70.15 60.97 69.87 61.25 69.52 61.25V68.95H62.2C62.2 69.3 61.92 69.58 61.57 69.58H12.16C11.81 69.58 11.53 69.3 11.53 68.95V61.25H4.20999C3.85999 61.25 3.57999 60.97 3.57999 60.62V12.99C3.57999 12.64 3.85999 12.36 4.20999 12.36V4.09998H11.43Z" fill="#025099"/>
<path d="M72.03 0.880005H1.35995C1.00995 0.880005 0.72998 1.16001 0.72998 1.51001V72.1801C0.72998 72.5301 1.00995 72.8101 1.35995 72.8101H72.03C72.38 72.8101 72.66 72.5301 72.66 72.1801V1.51001C72.66 1.16001 72.38 0.880005 72.03 0.880005ZM71.4 71.55H1.98996V2.14001H71.4V71.55Z" fill="#025099"/>
<path d="M71.65 71.8H1.73999V1.89001H71.65V71.8ZM2.23999 71.3H71.15V2.39001H2.23999V71.3ZM61.56 69.83H12.15C11.66 69.83 11.27 69.43 11.27 68.95V61.5H4.20001C3.71001 61.5 3.32001 61.1 3.32001 60.62V12.99C3.32001 12.59 3.59001 12.25 3.95001 12.15V3.85999H11.22C11.33 3.49999 11.67 3.22998 12.06 3.22998H61.66C62.15 3.22998 62.54 3.62999 62.54 4.10999V12.12H69.52C70.01 12.12 70.4 12.52 70.4 13V60.63C70.4 61.03 70.13 61.37 69.77 61.47V69.2H62.41C62.3 69.56 61.96 69.83 61.56 69.83ZM4.20001 12.61C3.99001 12.61 3.82001 12.78 3.82001 12.99V60.62C3.82001 60.83 3.99001 61 4.20001 61H11.77V68.95C11.77 69.16 11.94 69.33 12.15 69.33H61.56C61.77 69.33 61.94 69.16 61.94 68.95V68.7H69.26V61H69.51C69.72 61 69.89 60.83 69.89 60.62V12.99C69.89 12.78 69.72 12.61 69.51 12.61H62.03V4.09998C62.03 3.88998 61.86 3.71997 61.65 3.71997H12.05C11.84 3.71997 11.67 3.88998 11.67 4.09998V4.34998H4.44V12.61H4.20001Z" fill="#D1CCC9"/>
<path d="M72.03 73.0601H1.35995C0.869955 73.0601 0.47998 72.6601 0.47998 72.1801V1.51001C0.47998 1.02001 0.879955 0.630005 1.35995 0.630005H72.03C72.52 0.630005 72.91 1.03001 72.91 1.51001V72.1801C72.91 72.6701 72.52 73.0601 72.03 73.0601ZM1.35995 1.13C1.14995 1.13 0.97998 1.30001 0.97998 1.51001V72.1801C0.97998 72.3901 1.14995 72.5601 1.35995 72.5601H72.03C72.24 72.5601 72.41 72.3901 72.41 72.1801V1.51001C72.41 1.30001 72.24 1.13 72.03 1.13H1.35995ZM71.65 71.8H1.73996V1.89001H71.65V71.8ZM2.23996 71.3H71.15V2.39001H2.23996V71.3Z" fill="#D1CCC9"/>
<path d="M61.5599 69.83H12.1499C11.6599 69.83 11.2699 69.43 11.2699 68.95V61.5H4.19995C3.70995 61.5 3.31995 61.1 3.31995 60.62V12.99C3.31995 12.59 3.58995 12.25 3.94995 12.15V3.85999H11.2199C11.3299 3.49999 11.6699 3.22998 12.0599 3.22998H61.6599C62.1499 3.22998 62.5399 3.62999 62.5399 4.10999V12.12H69.5199C70.0099 12.12 70.3999 12.52 70.3999 13V60.63C70.3999 61.03 70.1299 61.37 69.7699 61.47V69.2H62.4099C62.2999 69.56 61.9599 69.83 61.5599 69.83ZM4.19995 12.61C3.98995 12.61 3.81995 12.78 3.81995 12.99V60.62C3.81995 60.83 3.98995 61 4.19995 61H11.7699V68.95C11.7699 69.16 11.9399 69.33 12.1499 69.33H61.5599C61.7699 69.33 61.9399 69.16 61.9399 68.95V68.7H69.2599V61H69.5099C69.7199 61 69.89 60.83 69.89 60.62V12.99C69.89 12.78 69.7199 12.61 69.5099 12.61H62.0299V4.09998C62.0299 3.88998 61.8599 3.71997 61.6499 3.71997H12.0499C11.8399 3.71997 11.67 3.88998 11.67 4.09998V4.34998H4.43994V12.61H4.19995ZM68.4999 68.5699H12.5299V60.62C12.5299 60.41 12.3599 60.24 12.1499 60.24H4.57993V5.10999H4.82993C5.03993 5.10999 5.20993 4.93998 5.20993 4.72998V4.47998H61.2699V12.99C61.2699 13.2 61.4399 13.37 61.6499 13.37H69.1299V67.9399H68.8799C68.6699 67.9399 68.4999 68.1099 68.4999 68.3199V68.5699ZM13.0299 68.0699H68.0399C68.1199 67.7799 68.3499 67.56 68.6299 67.48V13.88H61.6499C61.1599 13.88 60.7699 13.48 60.7699 13V4.98999H5.66995C5.58995 5.27999 5.35993 5.49996 5.07993 5.57996V59.74H12.1499C12.6399 59.74 13.0299 60.14 13.0299 60.62V68.0699V68.0699Z" fill="#D1CCC9"/>
</svg>
