<svg width="132" height="131" viewBox="0 0 132 131" fill="none" xmlns="http://www.w3.org/2000/svg">
<path d="M2.27002 115.63L15.7 129.06C15.7 129.02 15.68 128.99 15.68 128.95V115.64H2.27002V115.63Z" fill="#EEE9E4"/>
<path d="M115.52 1.20996V15.5601H129.87L115.52 1.20996Z" fill="#EEE9E4"/>
<path d="M15.49 15.5601V1.22998L1.16003 15.5601H15.49Z" fill="#EEE9E4"/>
<path d="M115.34 128.94C115.34 128.99 115.32 129.03 115.31 129.08L128.76 115.63H115.34V128.94Z" fill="#EEE9E4"/>
<path d="M130.73 0.290039H115.12C114.92 0.110039 114.66 0 114.38 0H16.64C16.35 0 16.1 0.120039 15.9 0.290039H0.309998V15.9401C0.119998 16.1401 0 16.41 0 16.71V114.49C0 114.79 0.119998 115.05 0.309998 115.26V129.81H16.08C16.28 129.99 16.54 130.1 16.82 130.1H114.19C114.48 130.1 114.73 129.98 114.93 129.81H130.72V115.23C130.89 115.03 131.01 114.78 131.01 114.49V16.71C131.01 16.42 130.9 16.17 130.72 15.97V0.290039H130.73ZM115.52 15.5601V1.20996L129.87 15.5601H115.52ZM15.7 129.06L2.27002 115.63H15.67V128.94C15.68 128.98 15.69 129.02 15.7 129.06ZM15.49 1.22998V15.5601H1.16L15.49 1.22998ZM113.05 114.48V127.79H72.62L65.76 120.93L59.46 127.79H17.97V114.48C17.97 113.85 17.46 113.33 16.82 113.33H2.29001V71.75L9.36002 64.6801L2.29001 58.1901V17.84H16.64C17.27 17.84 17.79 17.3301 17.79 16.6901V2.27002H59L65.86 9.13L72.16 2.27002H113.24V16.6901C113.24 17.3201 113.75 17.84 114.39 17.84H128.74V57.42L121.03 65.13L128.74 72.2001V113.33H114.21C113.56 113.34 113.05 113.85 113.05 114.48ZM128.76 115.63L115.31 129.08C115.32 129.03 115.34 128.99 115.34 128.94V115.63H128.76Z" fill="#025099"/>
</svg>
