<svg width="93" height="93" viewBox="0 0 93 93" fill="none" xmlns="http://www.w3.org/2000/svg">
<path d="M91.97 92.95H1.11005C0.660046 92.95 0.300049 92.59 0.300049 92.14V1.27997C0.300049 0.829968 0.660046 0.469971 1.11005 0.469971H91.97C92.42 0.469971 92.7801 0.829968 92.7801 1.27997V92.14C92.7801 92.58 92.42 92.95 91.97 92.95ZM1.92007 91.32H91.16V2.07996H1.92007V91.32V91.32Z" fill="#F4BD03"/>
<path d="M10.3202 1.04993L0.970215 10.39V1.04993H10.3202Z" fill="#F4BD03"/>
<path d="M0.360107 11.8599V0.439941H11.7801L0.360107 11.8599ZM1.58011 1.64993V8.91995L8.85013 1.64993H1.58011Z" fill="#F4BD03"/>
<path d="M0.970215 82.1899L10.3202 91.5299H0.970215V82.1899Z" fill="#F4BD03"/>
<path d="M11.7901 92.14H0.370117V80.72L11.7901 92.14ZM1.58011 90.93H8.85013L1.58011 83.66V90.93Z" fill="#F4BD03"/>
<path d="M82.76 1.04993L92.1 10.39V1.04993H82.76Z" fill="#F4BD03"/>
<path d="M92.7101 11.8599L81.29 0.439941H92.7101V11.8599ZM84.23 1.64993L91.5001 8.91995V1.64993H84.23Z" fill="#F4BD03"/>
<path d="M92.1 82.1899L82.76 91.5299H92.1V82.1899Z" fill="#F4BD03"/>
<path d="M92.7101 92.14H81.29L92.7101 80.72V92.14ZM84.23 90.93H91.5001V83.66L84.23 90.93Z" fill="#F4BD03"/>
</svg>
